<svg width="52" height="45" fill="none" xmlns="http://www.w3.org/2000/svg"><path d="M26.05 36.965c6.214 0 11.25-5.037 11.25-11.25s-5.036-11.25-11.25-11.25c-6.212 0-11.25 5.037-11.25 11.25s5.038 11.25 11.25 11.25zm0-20.893c5.326 0 9.644 4.318 9.644 9.643 0 5.325-4.318 9.643-9.643 9.643-5.325 0-9.643-4.318-9.643-9.643 0-5.325 4.317-9.643 9.643-9.643z" fill="#2FDADF"/><path d="M48.55 6.429h-6.428c-.803 0-1.271.003-2.244-.97l-4.45-4.45C35.277.856 34.352 0 33.283 0H18.819C17.65 0 16.81.871 16.66 1.021l-4.436 4.437c-.96.96-1.427.97-2.245.97v-2.41a.803.803 0 00-.803-.804H4.354a.803.803 0 00-.803.804v2.41A3.212 3.212 0 00.336 9.644v32.143A3.212 3.212 0 003.551 45h45a3.212 3.212 0 003.214-3.214V9.643a3.212 3.212 0 00-3.214-3.214zM5.159 4.82h3.214v1.61H5.158V4.82zM3.55 8.036h7.232c.803 0 1.629-.493 2.175-1.04l4.809-4.808c.565-.565 1.453-.58 1.453-.58H32.88s.863-.01 1.472.599l4.79 4.79c.6.6 1.372 1.039 2.176 1.039h7.232c.887 0 1.607.72 1.607 1.607v9.643H38.994c-2.368-4.759-7.268-8.036-12.943-8.036-5.676 0-10.575 3.277-12.943 8.036H1.944V9.643c0-.887.72-1.607 1.607-1.607zm22.5 4.821c7.1 0 12.857 5.756 12.857 12.857 0 7.102-5.756 12.857-12.857 12.857-7.101 0-12.857-5.755-12.857-12.857 0-7.1 5.756-12.857 12.857-12.857zm22.5 30.536h-45c-.887 0-1.607-.72-1.607-1.607V20.893h10.483a14.412 14.412 0 00-.84 4.821c0 7.989 6.475 14.465 14.464 14.465 7.988 0 14.464-6.476 14.464-14.465a14.42 14.42 0 00-.84-4.821h10.483v20.893c0 .887-.72 1.607-1.607 1.607z" fill="#2FDADF"/><path d="M26.05 20.892a4.822 4.822 0 014.822 4.822.803.803 0 101.607 0 6.429 6.429 0 00-6.428-6.429.803.803 0 100 1.607zm18.483-4.821a2.411 2.411 0 100-4.822 2.411 2.411 0 000 4.822zm0-3.214a.803.803 0 11.001 1.606.803.803 0 01-.001-1.606z" fill="#2FDADF"/></svg>