<svg width="193" height="35" fill="none" xmlns="http://www.w3.org/2000/svg"><g clip-path="url(#clip0_4079_20009)"><path d="M70.75 4.375C70.75 1.959 72.733 0 75.177 0h44.253c2.444 0 4.425 1.959 4.425 4.375v26.25c0 2.416-1.981 4.375-4.425 4.375H75.176c-2.444 0-4.425-1.959-4.425-4.375V4.375z" fill="#fff"/><path d="M116.453 10.973h-2.782c-.841 0-1.488.255-1.876 1.087l-5.305 11.96h3.752s.647-1.598.777-1.982h4.593c.129.448.453 1.919.453 1.919h3.364l-2.976-12.984zm-4.399 8.379c.323-.768 1.423-3.646 1.423-3.646 0 .064.324-.768.453-1.215l.259 1.15s.711 3.135.841 3.775h-2.976v-.064zm-5.306.386c0 2.686-2.459 4.477-6.276 4.477-1.617 0-3.17-.32-4.011-.703l.517-2.943.453.192c1.165.512 1.941.704 3.365.704 1.035 0 2.135-.384 2.135-1.28 0-.575-.453-.959-1.877-1.598-1.358-.64-3.17-1.663-3.17-3.518 0-2.559 2.523-4.286 6.082-4.286 1.358 0 2.523.256 3.235.576l-.518 2.814-.259-.256a7.022 7.022 0 00-2.717-.511c-1.359.064-2.006.64-2.006 1.151 0 .576.777 1.023 2.006 1.599 2.07.96 3.041 2.047 3.041 3.582z" fill="#3362AB"/><path d="M75.176 11.102l.064-.256h5.564c.777 0 1.36.256 1.553 1.087l1.23 5.757c-1.23-3.07-4.077-5.565-8.411-6.588z" fill="#F9B50B"/><path d="M91.415 10.974l-5.629 12.984H81.97l-3.235-10.873c2.33 1.471 4.27 3.774 4.982 5.373l.388 1.343 3.494-8.89h3.817v.063zm1.488-.064h3.558l-2.264 13.048h-3.558l2.264-13.048z" fill="#3362AB"/></g><g clip-path="url(#clip1_4079_20009)"><path d="M.5 4.375C.5 1.959 2.526 0 5.026 0h45.258c2.5 0 4.526 1.959 4.526 4.375v26.25c0 2.416-2.026 4.375-4.526 4.375H5.026C2.526 35 .5 33.041.5 30.625V4.375z" fill="#fff"/><path d="M12.687 12.597c-.567-.377-1.308-.566-2.22-.566H6.93c-.28 0-.435.136-.464.406L5.03 21.152a.279.279 0 00.067.235.275.275 0 00.22.107h1.68c.294 0 .456-.135.486-.406l.398-2.35a.411.411 0 01.154-.277.694.694 0 01.332-.14c.132-.02.258-.031.376-.031.117 0 .257.007.42.021.161.014.265.021.309.021 1.267 0 2.26-.345 2.983-1.036.722-.69 1.083-1.648 1.083-2.873 0-.84-.284-1.448-.851-1.826zm-1.823 2.617c-.074.498-.265.826-.575.982-.309.157-.75.235-1.325.235l-.73.022.376-2.286c.03-.156.125-.235.287-.235h.42c.59 0 1.017.082 1.282.246.265.164.353.51.265 1.036z" fill="#003087"/><path d="M49.996 12.031h-1.635c-.162 0-.258.079-.287.235l-1.436 8.886-.022.043a.3.3 0 00.088.203.287.287 0 00.221.096h1.459c.28 0 .434-.135.464-.406l1.436-8.736v-.021c0-.2-.096-.3-.288-.3z" fill="#009CDE"/><path d="M30.242 15.473a.298.298 0 00-.088-.203.266.266 0 00-.199-.096h-1.701a.472.472 0 00-.398.213l-2.342 3.333-.973-3.204c-.073-.228-.235-.342-.486-.342h-1.657a.264.264 0 00-.199.096.296.296 0 00-.088.203c0 .028.143.448.43 1.26l.929 2.628c.331.94.504 1.438.519 1.495-1.208 1.595-1.812 2.45-1.812 2.563 0 .185.096.278.287.278h1.702a.472.472 0 00.398-.214l5.634-7.86c.03-.029.044-.079.044-.15z" fill="#003087"/><path d="M46.087 15.171h-1.68c-.206 0-.33.235-.375.705-.383-.57-1.082-.854-2.1-.854-1.06 0-1.962.384-2.706 1.153s-1.116 1.674-1.116 2.713c0 .84.254 1.51.763 2.008.508.498 1.189.747 2.044.747a3.6 3.6 0 001.303-.256c.442-.17.788-.399 1.039-.684 0 .015-.015.079-.044.192-.03.115-.045.2-.045.257 0 .228.096.342.288.342h1.525c.28 0 .441-.135.485-.406l.907-5.575a.28.28 0 00-.067-.235.276.276 0 00-.22-.107zm-2.883 4.208a1.905 1.905 0 01-1.36.534c-.427 0-.773-.114-1.038-.342-.265-.227-.398-.54-.398-.94a1.8 1.8 0 01.553-1.334c.368-.364.825-.545 1.37-.545.412 0 .754.117 1.027.352.273.235.41.56.41.972a1.733 1.733 0 01-.564 1.303z" fill="#009CDE"/><path d="M20.984 15.171h-1.679c-.206 0-.331.235-.376.705-.397-.57-1.097-.854-2.099-.854-1.06 0-1.963.384-2.707 1.153-.744.769-1.116 1.674-1.116 2.713 0 .84.255 1.51.763 2.008s1.19.747 2.044.747c.412 0 .84-.085 1.281-.256.442-.17.796-.399 1.06-.684-.058.171-.088.32-.088.449 0 .228.096.342.288.342h1.524c.28 0 .442-.135.486-.406l.906-5.575a.28.28 0 00-.066-.235.276.276 0 00-.22-.107zm-2.883 4.219c-.376.35-.836.523-1.381.523-.428 0-.77-.114-1.028-.342-.258-.227-.386-.54-.386-.94 0-.526.184-.971.552-1.334.368-.364.825-.545 1.37-.545.412 0 .755.117 1.027.352.273.235.41.56.41.972 0 .527-.189.965-.564 1.314z" fill="#003087"/><path d="M37.789 12.597c-.567-.377-1.307-.566-2.22-.566h-3.514c-.295 0-.457.136-.486.406l-1.437 8.715a.279.279 0 00.067.235.274.274 0 00.22.107h1.812c.177 0 .295-.093.354-.278l.398-2.478a.41.41 0 01.155-.277.694.694 0 01.331-.14 2.39 2.39 0 01.376-.031c.117 0 .257.007.42.021.161.014.265.021.309.021 1.267 0 2.261-.345 2.983-1.036.722-.69 1.083-1.648 1.083-2.873 0-.84-.284-1.448-.851-1.826zm-2.265 3.514c-.324.213-.81.32-1.458.32l-.707.022.375-2.286c.03-.156.125-.235.287-.235h.398c.324 0 .582.014.774.043.19.028.375.117.552.267.177.15.265.367.265.651 0 .599-.162 1.004-.486 1.218z" fill="#009CDE"/></g><g clip-path="url(#clip2_4079_20009)"><path d="M139.794 4.375c0-2.416 1.981-4.375 4.425-4.375h44.253c2.444 0 4.425 1.959 4.425 4.375v26.25c0 2.416-1.981 4.375-4.425 4.375h-44.253c-2.444 0-4.425-1.959-4.425-4.375V4.375z" fill="#fff"/><path d="M172.153 27.823h-11.615V7.186h11.615v20.637z" fill="#6C6BBD"/><path d="M161.282 17.5c0-4.186 1.983-7.916 5.07-10.319a13.314 13.314 0 00-8.204-2.806c-7.331 0-13.274 5.876-13.274 13.125s5.943 13.125 13.274 13.125c3.097 0 5.946-1.049 8.204-2.806-3.087-2.403-5.07-6.133-5.07-10.319z" fill="#EB001B"/><path d="M187.818 17.5c0 7.249-5.942 13.125-13.274 13.125a13.319 13.319 0 01-8.205-2.806c3.089-2.403 5.071-6.133 5.071-10.319 0-4.186-1.982-7.916-5.071-10.319a13.319 13.319 0 018.205-2.806c7.332 0 13.274 5.876 13.274 13.125z" fill="#0099DF"/></g><defs><clipPath id="clip0_4079_20009"><path fill="#fff" transform="translate(70.75)" d="M0 0h53.103v35H0z"/></clipPath><clipPath id="clip1_4079_20009"><path fill="#fff" transform="translate(.5)" d="M0 0h54.31v35H0z"/></clipPath><clipPath id="clip2_4079_20009"><path fill="#fff" transform="translate(139.794)" d="M0 0h53.103v35H0z"/></clipPath></defs></svg>