<svg width="15" height="18" fill="none" xmlns="http://www.w3.org/2000/svg"><path d="M11.813 4.813H15v10.093c0 .73-.266 1.35-.797 1.86a2.478 2.478 0 01-1.86.797H2.782c-.73 0-1.361-.266-1.892-.797a2.53 2.53 0 01-.764-1.86V4.812h3.188c0-1.173.409-2.169 1.228-2.988.84-.84 1.847-1.262 3.02-1.262 1.174 0 2.17.421 2.989 1.262.84.82 1.261 1.815 1.261 2.989zm-2.391-1.86a2.478 2.478 0 00-1.86-.797c-.73 0-1.36.266-1.892.797a2.53 2.53 0 00-.764 1.86h5.313c0-.731-.266-1.35-.797-1.86zm3.984 11.953v-8.5h-1.594v1.328c0 .222-.077.41-.232.565a.769.769 0 01-.564.232.768.768 0 01-.565-.232.768.768 0 01-.232-.565V6.406H4.906v1.328c0 .222-.077.41-.232.565a.768.768 0 01-.565.232.768.768 0 01-.564-.232.768.768 0 01-.232-.565V6.406H1.718v8.5c0 .288.1.531.299.73.22.222.475.333.763.333h9.563c.288 0 .531-.11.73-.332a.946.946 0 00.332-.73z" fill="#000"/></svg>