<svg width="33" height="30" fill="none" xmlns="http://www.w3.org/2000/svg"><path fill-rule="evenodd" clip-rule="evenodd" d="M5.953 12.367a3.803 3.803 0 117.606 0 3.803 3.803 0 01-7.606 0zm3.803-1.728a1.729 1.729 0 100 3.457 1.729 1.729 0 000-3.457zm4.35 10.862c-1.728 1.936-3.53 4.583-5.436 7.97a1.037 1.037 0 01-1.808-1.017c1.946-3.458 3.832-6.246 5.697-8.334 1.86-2.084 3.75-3.528 5.715-4.209 2.002-.693 4.001-.563 5.972.356 1.937.902 3.813 2.549 5.676 4.835a1.037 1.037 0 11-1.608 1.31c-1.76-2.159-3.401-3.546-4.944-4.265-1.509-.703-2.95-.784-4.418-.275-1.504.52-3.113 1.689-4.846 3.63z" fill="#000"/><path fill-rule="evenodd" clip-rule="evenodd" d="M2.346 4.957A6.569 6.569 0 016.99 3.033h12.93a1.037 1.037 0 110 2.075H6.991a4.495 4.495 0 00-4.494 4.494v13.83c0 1.191.473 2.334 1.316 3.177M2.346 4.957A6.569 6.569 0 00.422 9.602v13.83A6.57 6.57 0 006.99 30h16.595a6.569 6.569 0 006.569-6.57V12.368a1.037 1.037 0 10-2.075 0V23.43a4.494 4.494 0 01-4.494 4.495H6.99a4.495 4.495 0 01-3.178-1.317" fill="#000"/><path fill-rule="evenodd" clip-rule="evenodd" d="M30.235 2.325a.89.89 0 00-1.258.02l-.01.01-7.04 7.04c-.038.038-.126.159-.221.395a3.656 3.656 0 00-.25 1.297 3.607 3.607 0 001.298-.253c.233-.095.348-.18.382-.216l.008-.008 7.053-7.039c.054-.054.113-.101.176-.141a.89.89 0 00.132-.48m-9.301 8.11l.008.002a.04.04 0 01-.008-.002zm.276.269l.003.01a.05.05 0 01-.003-.01zM31.68.836A2.964 2.964 0 0029.57 0l.016 1.037L29.571 0a2.964 2.964 0 00-2.077.894L20.46 7.928c-.314.314-.53.719-.679 1.087a5.731 5.731 0 00-.328 1.197 4.809 4.809 0 00-.056 1.194c.03.318.122.862.521 1.25.39.377.922.464 1.24.492.38.032.794.004 1.188-.062a5.681 5.681 0 001.19-.33c.364-.15.766-.366 1.076-.68l6.862-6.849c.099-.051.19-.118.27-.2A2.964 2.964 0 0031.68.836zM30.504 2.95a.89.89 0 00-.27-.625" fill="#000"/></svg>