<svg width="16" height="17" fill="none" xmlns="http://www.w3.org/2000/svg"><path d="M12.188 4.25h3.187v10.094c0 .73-.266 1.35-.797 1.86a2.478 2.478 0 01-1.86.796H3.157c-.73 0-1.361-.266-1.892-.797a2.53 2.53 0 01-.764-1.86V4.25h3.188c0-1.173.409-2.17 1.228-2.988C5.757.42 6.764 0 7.937 0c1.174 0 2.17.42 2.989 1.262.84.819 1.261 1.815 1.261 2.988zM9.796 2.39a2.478 2.478 0 00-1.86-.796c-.73 0-1.36.265-1.892.797A2.53 2.53 0 005.28 4.25h5.313c0-.73-.266-1.35-.797-1.86zm3.984 11.954v-8.5h-1.594v1.328c0 .221-.077.41-.232.564a.769.769 0 01-.564.233.768.768 0 01-.565-.233.768.768 0 01-.232-.564V5.844H5.28v1.328c0 .221-.077.41-.232.564a.768.768 0 01-.565.233.768.768 0 01-.564-.233.768.768 0 01-.232-.564V5.844H2.093v8.5c0 .288.1.531.299.73.22.222.475.332.763.332h9.563c.288 0 .531-.11.73-.332a.945.945 0 00.332-.73z" fill="#000"/></svg>