<svg width="39" height="23" fill="none" xmlns="http://www.w3.org/2000/svg"><path d="M1.139 12.778h3.833c.354 0 .64.285.64.639a.638.638 0 01-.64.639H1.14a.638.638 0 01-.639-.64c0-.353.285-.638.639-.638zm0-5.111h3.833c.354 0 .64.285.64.639a.637.637 0 01-.64.638H1.14a.637.637 0 01-.64-.638c0-.354.285-.64.639-.64zm0-5.111h3.833a.637.637 0 110 1.278H1.14a.637.637 0 01-.639-.64c0-.353.285-.638.639-.638zM31.806 16.61a3.204 3.204 0 00-3.195 3.195A3.204 3.204 0 0031.806 23 3.204 3.204 0 0035 19.806a3.204 3.204 0 00-3.194-3.195zm0 1.278c1.065 0 1.916.85 1.916 1.917a1.908 1.908 0 01-1.916 1.916 1.908 1.908 0 01-1.917-1.916c0-1.066.85-1.917 1.917-1.917zM15.194 16.61A3.204 3.204 0 0012 19.806 3.204 3.204 0 0015.194 23a3.204 3.204 0 003.195-3.194 3.204 3.204 0 00-3.195-3.195zm0 1.278c1.066 0 1.917.85 1.917 1.917a1.908 1.908 0 01-1.917 1.916 1.908 1.908 0 01-1.916-1.916c0-1.066.85-1.917 1.916-1.917zM8.806 0c-1.05 0-1.917.866-1.917 1.917v14.055c0 1.05.866 1.917 1.917 1.917h2.555c.864.013.864-1.29 0-1.278H8.806a.623.623 0 01-.64-.639V1.917c0-.366.274-.64.64-.64h16.61c.366 0 .64.274.64.64V16.61h-7.028c-.844 0-.828 1.29 0 1.278h8.944c.844 0 .836-1.278 0-1.278h-.639V5.11h5.401l4.822 7.534v3.327a.623.623 0 01-.64.64H35.64c-.836 0-.836 1.277 0 1.277h1.278c1.05 0 1.916-.866 1.916-1.917v-3.514a.646.646 0 00-.1-.345l-5.11-7.986a.64.64 0 00-.54-.294h-5.75V1.917A1.929 1.929 0 0025.417 0H8.806z" fill="#000"/><path d="M20.057 7.194A.65.65 0 0120.501 7h.001c.58 0 .89.696.469 1.105l-3.827 3.817a.647.647 0 01-.914 0l-2.533-2.527c-.607-.58.332-1.516.913-.91l2.077 2.07 3.37-3.36z" fill="red"/></svg>