<svg width="44" height="44" fill="none" xmlns="http://www.w3.org/2000/svg"><path d="M3.094 12.405L.756 10.008C-.067 9.164-.227 7.81.509 6.89a2.161 2.161 0 013.256-.169 2.161 2.161 0 013.256.17c.736.919.576 2.272-.246 3.116l-2.339 2.397a.938.938 0 01-1.342 0zm40.023 6.782v20.625a3.75 3.75 0 01-3.75 3.75H31.86a1.875 1.875 0 01-1.875-1.875v-22.5h-6.563v22.5c0 1.036-.84 1.875-1.875 1.875h-7.492a3.75 3.75 0 01-3.75-3.748c0-1.805-.007-3.699-.01-5.035L7.67 41.81a1.87 1.87 0 01-2.41 1.097l-1.752-.656a3.755 3.755 0 01-2.203-4.828C5.46 26.302 4.72 28.284 5.57 26.003l5.269 1.969 2.278-6.09v-.058l-5.25-1.962c.851-2.285.101-.277 4.266-11.418A3.759 3.759 0 0116.96 6.24l1.753.656a1.884 1.884 0 011.104 2.424l-.237.634a4.746 4.746 0 013.849.718 4.773 4.773 0 016.53 1.03c1.25 1.628 1.267 3.881.162 5.61h11.12a1.88 1.88 0 011.875 1.874zm-24.544-6.54l-.76 2.035c.02.776.325 1.558.92 2.16l.467.47h8.46l.465-.47c1.097-1.108 1.247-2.827.348-3.997a2.894 2.894 0 00-4.377-.292.965.965 0 01-1.333 0c-1.106-1.118-2.985-1.218-4.19.095zm20.794 17.79a.94.94 0 00-.937-.937.94.94 0 00-.938.937v6.104c0 .525.422.937.938.937a.934.934 0 00.937-.938v-6.103zm0-8.493a.94.94 0 00-.937-.938.94.94 0 00-.938.938v3.806a.94.94 0 00.938.937.94.94 0 00.937-.937v-3.806zM35.001 11.04c.857.867 2.25.867 3.108 0l3.808-3.85c1.389-1.404 1.628-3.66.424-5.227a3.831 3.831 0 00-5.786-.38 3.831 3.831 0 00-5.787.38c-1.204 1.567-.965 3.823.424 5.227l3.809 3.85z" fill="#FA585A"/></svg>