<svg width="40" height="41" fill="none" xmlns="http://www.w3.org/2000/svg"><path d="M.5 14.086c0 .012 0 .012 0 0A5.913 5.913 0 003.71 19.3v20.39c0 .48.4.88.88.88h31.1c.48 0 .88-.4.88-.88V19.3a5.963 5.963 0 003.21-5.215v-.152c0-.012 0-.036-.011-.047 0-.012 0-.024-.012-.047 0-.012-.012-.024-.012-.035 0-.012-.012-.035-.012-.047 0-.012-.011-.024-.011-.035-.012-.024-.012-.036-.024-.047v-.012L35.96 5.741V2.73c0-1.5-1.219-2.73-2.73-2.73H7.015c-1.5 0-2.73 1.219-2.73 2.73v3.083l-3.704 7.85v.012c-.012.011-.012.035-.023.047 0 .011-.012.023-.012.035 0 .012-.012.035-.012.047 0 .011-.012.023-.012.035 0 .012 0 .023-.011.047 0 .011 0 .035-.012.047v.152zM5.762 6.82h6.504L10.8 13.16H2.76l3-6.34zm20.449 0l1.465 6.34H21.02V6.82h5.19zm11.297 6.34h-8.04l-1.452-6.34h6.504l2.988 6.34zm-9.164 2.93a4.211 4.211 0 01-3.645 2.133 4.2 4.2 0 01-3.691-2.227V14.93h7.055l.28 1.16zm-16.137-1.172h7.055v1.066a4.186 4.186 0 01-3.692 2.227 4.211 4.211 0 01-3.644-2.133l.281-1.16zm7.055-1.758h-6.657l1.465-6.34h5.192v6.34zm-16.91 1.758h8.039l-.223.984a4.202 4.202 0 01-3.738 2.32c-1.992 0-3.668-1.417-4.078-3.304zm22.113 23.906v-8.543c0-.105.082-.187.187-.187h4.957c.106 0 .188.082.188.187v8.543h-5.332zm10.348 0h-3.27v-8.543a1.948 1.948 0 00-1.945-1.945H24.64a1.948 1.948 0 00-1.946 1.945v8.543H5.47V19.898c.316.047.633.082.972.082a5.942 5.942 0 004.57-2.156 5.98 5.98 0 004.571 2.156 5.942 5.942 0 004.57-2.156 5.98 5.98 0 004.57 2.156 5.942 5.942 0 004.571-2.156 5.98 5.98 0 004.57 2.156c.328 0 .657-.023.973-.082v18.926h-.023zm-.973-20.601a4.18 4.18 0 01-3.738-2.32l-.223-.985h8.039a4.173 4.173 0 01-4.078 3.305zM6.055 2.743c0-.528.433-.973.972-.973h26.215c.528 0 .973.433.973.972v2.32H6.055v-2.32z" fill="#2FDADF"/><path d="M18.008 22.242H8.48a.885.885 0 00-.878.88v7.616c0 .48.398.88.878.88h9.528c.48 0 .879-.4.879-.88v-7.617a.878.878 0 00-.88-.879zm-.88 3.809h-3.01V24h3.01v2.05zM12.36 24v2.05h-3V24h3zm-3 3.809h3.012v2.05H9.36v-2.05zm4.758 2.05v-2.05h3.012v2.05h-3.012z" fill="#2FDADF"/></svg>