<svg width="574" height="686" fill="none" xmlns="http://www.w3.org/2000/svg"><g clip-path="url(#clip0_4079_22708)"><path d="M353.28 686c121.624 0 220.219-38.586 220.219-86.184s-98.595-86.183-220.219-86.183-220.219 38.585-220.219 86.183c0 47.598 98.595 86.184 220.219 86.184z" fill="#FEA4D5"/><path d="M339.877 639.273c97.57 0 176.667-31.222 176.667-69.738 0-38.515-79.097-69.738-176.667-69.738-97.57 0-176.666 31.223-176.666 69.738 0 38.516 79.096 69.738 176.666 69.738z" fill="#BC719A"/><path d="M318.835 69.922h12.637c46.09 0 90.293 18.315 122.883 50.916a173.866 173.866 0 0150.9 122.923v245.45c0 33.63-13.355 65.884-37.128 89.664a126.743 126.743 0 01-89.636 37.141H271.786c-33.62 0-65.863-13.36-89.636-37.141a126.825 126.825 0 01-37.129-89.664v-245.45a173.87 173.87 0 0150.9-122.923 173.758 173.758 0 01122.884-50.916h.03z" fill="#26BBBF"/><path d="M54.51 606.045l-13.526-10.401c31.684-41.174 44.934-98.18 39.413-169.882-2.178-28.318-6.87-57.067-11.38-84.833-5.183-31.816-10.52-64.737-12.268-97.628-4.11-74.8 13.71-136.899 51.283-179.515C140.513 26.938 190.231 3.221 241.114.306a166.072 166.072 0 0188.947 18.41c28.432 15.524 49.074 40.345 56.956 68.08L370.608 91.4c-6.564-23.348-24.322-44.365-48.736-57.68-22.298-12.242-50.669-18.01-79.807-16.354-46.375 2.67-91.707 24.238-121.213 57.712-43.676 49.55-49.81 118.214-47.08 167.304 1.718 31.97 6.993 64.43 12.084 95.756 4.601 28.135 9.202 57.251 11.563 86.275 5.859 75.936-8.587 137.053-42.909 181.633z" fill="#93E4E6"/><path d="M33.747 588.188L9.67 580.549m19.814 20.279l-25.918 7.486m34.752 2.424l-8.22 21.968m24.382-15.862l9.754 20.433m2.422-32.705l26.224 3.437" stroke="#26BBBF" stroke-width="2" stroke-linecap="round" stroke-linejoin="round"/><path d="M226.761 515.964V247.32a176.418 176.418 0 0141.416-113.011 176.315 176.315 0 01104.241-60.123 171.434 171.434 0 00-19.139-1.135 169.581 169.581 0 00-119.497 49.748 169.692 169.692 0 00-49.624 119.581v258.612a123.882 123.882 0 0027.898 77.806 123.814 123.814 0 0070.618 42.924 128.295 128.295 0 01-41.033-45.961 128.34 128.34 0 01-14.88-59.797z" fill="#93E4E6"/><path d="M417.016 85.662a196.79 196.79 0 0157.416 138.832v301.75a143.182 143.182 0 01-31.837 89.987 123.787 123.787 0 0057.783-45.31 123.861 123.861 0 0021.963-70.081V242.381a169.775 169.775 0 00-28.862-94.365 169.694 169.694 0 00-76.463-62.354z" fill="#fff"/><path d="M474.432 224.494a196.79 196.79 0 00-57.417-138.832 166.984 166.984 0 00-44.596-11.475 176.319 176.319 0 00-104.241 60.123 176.42 176.42 0 00-41.416 113.011v268.644a128.336 128.336 0 0014.88 59.797 128.288 128.288 0 0041.033 45.961 122.089 122.089 0 0024.783 2.516h91.523a122.245 122.245 0 0043.553-8.007 143.192 143.192 0 0031.837-89.988l.061-301.75z" fill="#E0F2F2"/><path d="M330.461 333.074a8.225 8.225 0 01-5.074 7.597 8.222 8.222 0 01-8.958-1.783 8.227 8.227 0 01-1.782-8.961 8.225 8.225 0 017.594-5.075 8.22 8.22 0 018.22 8.222zm129.157 0a8.226 8.226 0 01-5.075 7.597 8.222 8.222 0 01-8.958-1.783 8.225 8.225 0 011.246-12.651 8.222 8.222 0 0112.787 6.837zm-134.679 47.587a70.991 70.991 0 0126.868-22.152 79.734 79.734 0 0169.256 0 70.356 70.356 0 0126.837 22.152 117.764 117.764 0 00-29.567-15.525 98.122 98.122 0 00-63.796 0 117.435 117.435 0 00-29.598 15.525zm143.573-61.179a9.2 9.2 0 01-6.778 2.608 12.267 12.267 0 01-11.471-8.406 9.214 9.214 0 01.46-7.272c1.902 1.78 3.282 3.068 4.631 4.173 1.35 1.104 2.577 2.055 3.803 3.068 1.227 1.012 2.516 1.81 3.988 2.73 1.472.921 3.128 1.841 5.367 3.099zm-165.901 4.604a144.755 144.755 0 005.368-3.068c1.472-.89 2.73-1.841 3.987-2.762a50.185 50.185 0 003.803-3.068c1.35-1.196 2.761-2.424 4.632-4.172a9.211 9.211 0 01.46 7.271 12.093 12.093 0 01-4.417 6.136 12.263 12.263 0 01-7.054 2.424 9.2 9.2 0 01-6.779-2.761z" fill="#14141F"/><path d="M202.929 431.438s-85.88 60.902 187.094 50.255" stroke="#26BBBF" stroke-width="1.89" stroke-miterlimit="10" stroke-linecap="round"/><path d="M522.4 427.787s79.255 52.588-112.195 52.588m-87.074 144.999s31.254-419.013 51.926 17.457m29.72-17.579s31.254-417.479 51.896 19.053" stroke="#26BBBF" stroke-width="2" stroke-miterlimit="10" stroke-linecap="round"/><path d="M426.462 480.375c0 5.492-6.441 9.941-14.416 9.941-7.974 0-14.415-4.449-14.415-9.941 0-5.492 6.471-9.91 14.415-9.91 7.944 0 14.416 4.449 14.416 9.91zm-43.248 11.504c7.962 0 14.416-4.45 14.416-9.94 0-5.49-6.454-9.941-14.416-9.941-7.961 0-14.415 4.451-14.415 9.941 0 5.49 6.454 9.94 14.415 9.94zm24.569 169.851c-2.177 5.032-13.372 5.032-24.997 0-11.624-5.031-19.23-13.223-17.053-18.255 2.178-5.032 13.373-5.032 24.997 0 11.625 5.032 19.231 13.101 17.053 18.255zm80.665-3.068c-2.208 5.032-13.373 5.001-24.997 0s-19.262-13.254-17.053-18.255c2.208-5.001 13.372-5.032 24.966 0 11.594 5.032 19.262 13.101 17.084 18.255z" fill="#14141F"/><path d="M184.158 278.555a502.373 502.373 0 0183.426-21.232c14.17-2.515 28.432-4.326 42.694-5.737 14.262-1.411 28.739-2.178 43.124-2.638a471.872 471.872 0 0186.248 5.614 373.939 373.939 0 0142.387 9.297 308.306 308.306 0 0140.486 14.788c-13.802-3.927-27.604-7.67-41.559-10.37-3.466-.798-6.993-1.32-10.49-1.995-3.496-.675-6.993-1.319-10.52-1.748l-10.52-1.596-10.582-1.288c-14.139-1.473-28.279-2.823-42.449-3.069-14.17-.245-28.401-.797-42.602-.337a832.071 832.071 0 00-85.052 6.382c-28.401 3.344-56.619 7.915-84.591 13.929z" fill="#26BBBF"/><path d="M378.951 253.243V77.777" stroke="#26BBBF" stroke-width="2" stroke-miterlimit="10" stroke-linecap="round"/><path d="M375.485 218.695a16.988 16.988 0 01-11.954-4.978 17.002 17.002 0 01-4.976-11.958V120.7a17.002 17.002 0 014.976-11.958 16.988 16.988 0 0111.954-4.978 16.999 16.999 0 0116.931 16.936v81.059a16.97 16.97 0 01-4.968 11.967 16.959 16.959 0 01-11.963 4.969z" fill="#26BBBF"/><path d="M379.35 104.316v113.92a16.998 16.998 0 0013.066-16.476V120.7a17 17 0 00-13.066-16.384z" fill="#26BBBF"/><path d="M375.485 218.695a16.988 16.988 0 01-11.954-4.978 17.002 17.002 0 01-4.976-11.958V120.7a17.002 17.002 0 014.976-11.958 16.988 16.988 0 0111.954-4.978 16.999 16.999 0 0116.931 16.936v81.059a16.97 16.97 0 01-4.968 11.967 16.959 16.959 0 01-11.963 4.969z" fill="#26BBBF"/><path d="M382.018 215.902a16.965 16.965 0 01-16.93-16.936v-81.059a16.999 16.999 0 0116.93-16.936 16.999 16.999 0 0116.931 16.936v81.059a16.97 16.97 0 01-4.968 11.967 16.959 16.959 0 01-11.963 4.969z" fill="#93E4E6"/><path d="M385.883 101.432v114.011a16.993 16.993 0 0013.066-16.476v-81.06a17.028 17.028 0 00-13.066-16.475z" fill="#fff"/><path d="M463.635 63.295v115.821M442.043 72.377v66.486m43.184-40.316v73.236" stroke="#26BBBF" stroke-width="2" stroke-miterlimit="10" stroke-linecap="round"/></g><defs><clipPath id="clip0_4079_22708"><path fill="#fff" transform="translate(.5)" d="M0 0h573v686H0z"/></clipPath></defs></svg>