<svg width="21" height="15" fill="none" xmlns="http://www.w3.org/2000/svg"><path d="M19.715 4.953a.235.235 0 01.379.184v7.988c0 1.035-.84 1.875-1.875 1.875H1.969a1.875 1.875 0 01-1.875-1.875V5.141c0-.196.222-.305.379-.184.875.68 2.035 1.543 6.02 4.438.823.601 2.214 1.867 3.6 1.859 1.395.012 2.813-1.281 3.606-1.86 3.985-2.894 5.14-3.761 6.016-4.44zM10.094 10c.906.016 2.21-1.14 2.867-1.617 5.184-3.762 5.578-4.09 6.773-5.028a.935.935 0 00.36-.738v-.742C20.094.84 19.254 0 18.219 0H1.969C.934 0 .094.84.094 1.875v.742c0 .29.133.559.36.738 1.194.934 1.589 1.266 6.773 5.028.656.476 1.96 1.633 2.867 1.617z" fill="#2FDADF"/></svg>