<svg width="73" height="18" fill="none" xmlns="http://www.w3.org/2000/svg"><path d="M56.193 5h-3.652c-.215 0-.43.21-.537.421L50.5 14.684c0 .21.107.316.322.316h1.934c.215 0 .322-.105.322-.316l.43-2.631c0-.21.214-.421.537-.421h1.181c2.471 0 3.867-1.158 4.19-3.474.215-.947 0-1.79-.43-2.316C58.342 5.316 57.375 5 56.193 5zm.43 3.474c-.215 1.263-1.182 1.263-2.148 1.263h-.645l.43-2.421c0-.105.107-.21.322-.21h.215c.644 0 1.289 0 1.611.42.215.106.215.421.215.948z" fill="#139AD6"/><path d="M28.157 4.6H24.27c-.229 0-.457.228-.571.457l-1.6 10.057c0 .228.114.343.342.343h1.829c.229 0 .457-.229.572-.457l.457-2.743c0-.229.228-.457.571-.457h1.257c2.629 0 4.114-1.258 4.457-3.772.229-1.028 0-1.943-.457-2.514-.686-.572-1.6-.914-2.971-.914zm.457 3.771c-.229 1.371-1.257 1.371-2.286 1.371h-.571l.457-2.628c0-.114.114-.229.343-.229h.228c.686 0 1.372 0 1.715.457.114.115.228.458.114 1.029zm11.314-.115H38.1c-.115 0-.343.114-.343.228l-.114.572-.115-.229c-.457-.571-1.257-.8-2.171-.8-2.057 0-3.886 1.6-4.229 3.772-.228 1.143.114 2.171.686 2.857.571.686 1.371.914 2.4.914 1.714 0 2.629-1.028 2.629-1.028l-.115.571c0 .229.114.343.343.343h1.714c.229 0 .458-.229.572-.457l1.028-6.4c-.114-.115-.343-.343-.457-.343zM37.3 11.913c-.229 1.029-1.029 1.829-2.172 1.829-.571 0-1.028-.229-1.257-.458-.229-.342-.343-.8-.343-1.371.114-1.029 1.029-1.829 2.057-1.829.572 0 .915.23 1.258.458.342.342.457.914.457 1.371z" fill="#263B80"/><path d="M68.01 8.242h-1.96c-.123 0-.368.122-.368.243l-.122.606-.123-.243C64.947 8.242 64.09 8 63.11 8c-2.206 0-4.166 1.697-4.533 4-.245 1.212.122 2.303.735 3.03.612.728 1.47.97 2.573.97 1.837 0 2.817-1.09 2.817-1.09l-.122.605c0 .243.122.364.367.364h1.838c.245 0 .49-.243.612-.485L68.5 8.606c-.123-.121-.245-.364-.49-.364zm-2.818 3.88c-.245 1.09-1.102 1.939-2.327 1.939-.613 0-1.103-.243-1.348-.485-.245-.364-.368-.849-.368-1.455.123-1.09 1.103-1.94 2.206-1.94.612 0 .98.243 1.347.486.49.363.613.97.49 1.454z" fill="#139AD6"/><path d="M50.214 8H48.29c-.226 0-.34.115-.453.23l-2.49 3.908-1.131-3.678c-.113-.23-.226-.345-.566-.345h-1.81c-.227 0-.34.23-.34.46l2.037 6.092-1.924 2.758c-.113.23 0 .575.227.575h1.81c.227 0 .34-.115.453-.23l6.224-9.08c.34-.345.113-.69-.113-.69z" fill="#263B80"/><path d="M70.056 5.276L68.5 15.654c0 .23.111.346.333.346h1.556c.222 0 .444-.23.555-.461L72.5 5.39c0-.23-.111-.346-.333-.346h-1.778c-.111-.115-.222 0-.333.23z" fill="#139AD6"/><path d="M13.564 1.352C12.769.451 11.292 0 9.247 0h-5.68c-.34 0-.681.338-.795.676L.5 15.436c0 .339.227.564.454.564h3.522l.909-5.521v.225c.113-.338.454-.676.795-.676h1.704c3.294 0 5.793-1.352 6.589-5.07V4.62c-.114 0-.114 0 0 0 .113-1.465-.114-2.366-.91-3.268z" fill="#263B80"/><path d="M14.212 4v.353c-.755 4-3.13 5.294-6.259 5.294H6.334c-.323 0-.647.353-.755.706L4.5 17.529c0 .236.108.471.432.471h2.805c.324 0 .648-.235.648-.588v-.118l.54-3.647v-.235c0-.353.323-.589.647-.589h.431c2.698 0 4.856-1.176 5.396-4.705.216-1.412.108-2.706-.54-3.53A1.137 1.137 0 0014.212 4z" fill="#139AD6"/><path d="M13.5 4.35c-.111 0-.222-.117-.333-.117-.111 0-.223 0-.334-.116C12.39 4 11.944 4 11.39 4H7.056c-.112 0-.223 0-.334.117a.647.647 0 00-.333.583L5.5 10.767V11c.111-.35.444-.7.778-.7h1.666c3.223 0 5.667-1.4 6.445-5.25 0-.117 0-.233.111-.35-.222-.117-.333-.233-.556-.233-.333-.117-.333-.117-.444-.117z" fill="#232C65"/></svg>