<svg width="20" height="19" fill="none" xmlns="http://www.w3.org/2000/svg"><path d="M15.12 19c-.183 0-.367-.021-.547-.062a18.4 18.4 0 01-9.095-4.92A18.54 18.54 0 01.553 4.879a2.644 2.644 0 01.063-1.302c.13-.422.362-.802.676-1.104L3.481.308a1.09 1.09 0 01.843-.304 1.087 1.087 0 01.793.489L7.853 4.65a.919.919 0 01-.06 1.068L6.42 7.404a10.654 10.654 0 002.282 3.313 10.529 10.529 0 003.321 2.3l1.702-1.39a.884.884 0 011.018-.067l4.132 2.744c.142.087.262.206.353.348a1.143 1.143 0 01.125.971 1.13 1.13 0 01-.254.43l-2.134 2.17a2.59 2.59 0 01-.847.578 2.55 2.55 0 01-.997.199zM4.237 1.117l-2.19 2.165a1.434 1.434 0 00-.379.62 1.466 1.466 0 00-.031.73 17.403 17.403 0 004.602 8.581 17.308 17.308 0 008.559 4.629c.243.052.496.041.735-.031a1.5 1.5 0 00.633-.386l2.134-2.17-3.99-2.649-1.827 1.496a.54.54 0 01-.504.095 10.95 10.95 0 01-4.027-2.67 10.98 10.98 0 01-2.665-4.05.577.577 0 01.131-.534l1.478-1.816-2.66-4.01z" fill="#2FDADF"/></svg>