<svg width="51" height="50" fill="none" xmlns="http://www.w3.org/2000/svg"><path d="M44.25 31.25h4.166v4.167H44.25V31.25zm0-8.333h4.166v4.166H44.25v-4.166zm4.166 16.666H44.25v4.167c2.083 0 4.166-2.083 4.166-4.167zM27.583 6.25h4.167v4.167h-4.167V6.25zm16.667 8.333h4.166v4.167H44.25v-4.167zm0-8.333v4.167h4.166c0-2.084-2.083-4.167-4.166-4.167zM2.583 14.583H6.75v4.167H2.583v-4.167zM35.916 6.25h4.167v4.167h-4.167V6.25zm0 33.333h4.167v4.167h-4.167v-4.167zM6.75 6.25c-2.084 0-4.167 2.083-4.167 4.167H6.75V6.25zm12.5 0h4.166v4.167H19.25V6.25zm-8.334 0h4.167v4.167h-4.167V6.25zM2.583 22.917v16.666A4.179 4.179 0 006.75 43.75h25V22.917H2.583zM6.75 39.583l5.208-6.687 3.73 4.479 5.207-6.708 6.688 8.916H6.75z" fill="#2FDADF"/></svg>