<svg width="42" height="50" fill="none" xmlns="http://www.w3.org/2000/svg"><path d="M32.786 0H8.878C4.254 0 .491 3.764.491 8.389v33.224C.491 46.238 4.254 50 8.878 50h21.374l.91-.908 9.105-9.105.908-.909V8.39c0-4.626-3.763-8.39-8.389-8.39zM16.141 17.084c-.139-.945-.33-2.813.165-3.75 0 0-.339-.61-.339-1.421 1.42.202 5.954-2.707 7.307-.338 1.961-.204 3.134 2.564 2.244 5.51 0 0 1.099-.052.66 1.488-.413 1.447-.743 1.777-1.322 1.983-.247 1.406-.665 2.646-1.214 3.256v1.694c0 .043.007.089.02.136l-1.923.925v1.36h-1.811v-1.36l-1.924-.926a.516.516 0 00.02-.135v-1.694c-.55-.61-.965-1.85-1.214-3.256-.579-.206-.909-.537-1.322-1.983-.423-1.479.572-1.489.653-1.489zm4.693 17.933c-6.496 0-10.96-.843-11.03-1.655-.281-3.384 4.102-5.19 5.886-5.818.176-.063.38-.159.589-.276l3.407 4.71.242-3.086h1.81l.243 3.086 3.407-4.71c.205.111.404.207.589.276 1.771.662 6.167 2.431 5.885 5.818-.068.811-4.533 1.655-11.028 1.655zm8.131 11.877v-4.7a4.403 4.403 0 014.402-4.403h4.702l-9.104 9.103z" fill="#2FDADF"/></svg>