<svg width="52" height="46" fill="none" xmlns="http://www.w3.org/2000/svg"><path d="M26.167 37.465c6.213 0 11.25-5.037 11.25-11.25s-5.037-11.25-11.25-11.25-11.25 5.037-11.25 11.25 5.037 11.25 11.25 11.25zm0-20.893c5.325 0 9.643 4.318 9.643 9.643 0 5.325-4.318 9.643-9.643 9.643-5.325 0-9.643-4.318-9.643-9.643 0-5.325 4.318-9.643 9.643-9.643z" fill="#2FDADF"/><path d="M48.667 6.929H42.24c-.804 0-1.271.003-2.244-.97l-4.45-4.45C35.392 1.356 34.467.5 33.4.5H18.935c-1.167 0-2.007.871-2.158 1.021L12.34 5.958c-.96.96-1.426.97-2.244.97v-2.41a.803.803 0 00-.804-.804H4.471a.803.803 0 00-.804.804v2.41a3.212 3.212 0 00-3.214 3.215v32.143A3.212 3.212 0 003.667 45.5h45a3.212 3.212 0 003.215-3.214V10.143a3.212 3.212 0 00-3.215-3.214zM5.275 5.32h3.214v1.61H5.275V5.32zM3.667 8.536H10.9c.803 0 1.628-.493 2.175-1.04l4.808-4.808c.565-.565 1.454-.58 1.454-.58h13.66s.864-.01 1.473.599l4.79 4.79c.6.6 1.372 1.039 2.175 1.039h7.232c.888 0 1.608.72 1.608 1.607v9.643H39.11c-2.369-4.759-7.268-8.036-12.944-8.036-5.675 0-10.575 3.277-12.943 8.036H2.06v-9.643c0-.887.72-1.607 1.607-1.607zm22.5 4.821c7.102 0 12.858 5.756 12.858 12.857 0 7.102-5.756 12.857-12.858 12.857-7.1 0-12.857-5.755-12.857-12.857 0-7.1 5.756-12.857 12.857-12.857zm22.5 30.536h-45c-.887 0-1.607-.72-1.607-1.607V21.393h10.484a14.412 14.412 0 00-.84 4.821c0 7.989 6.475 14.465 14.463 14.465 7.989 0 14.465-6.476 14.465-14.465a14.42 14.42 0 00-.84-4.821h10.483v20.893c0 .887-.72 1.607-1.608 1.607z" fill="#2FDADF"/><path d="M26.168 21.392a4.822 4.822 0 014.821 4.822.803.803 0 101.607 0 6.429 6.429 0 00-6.428-6.429.803.803 0 100 1.607zm18.482-4.821a2.411 2.411 0 100-4.822 2.411 2.411 0 000 4.822zm0-3.214a.803.803 0 11.001 1.606.803.803 0 01-.001-1.606z" fill="#2FDADF"/></svg>