<svg width="39" height="44" fill="none" xmlns="http://www.w3.org/2000/svg"><path d="M7.629 17.817c-1.206.157-1.643.907-1.643 2.1 0 .793.797 1.45 2.389 1.968 1.797 12.41 20.4 12.41 21.519-1 1.468-.934 2.202-1.61 2.202-2.026 0-.764-.267-1.303-1.65-1.77m-19.454-3.577c1.622-2.772 2.218-5.543 2.218-5.543s3.967 4.072 15.039 5.543m-7.157 11.101c-1.056.257-2.092.912-2.902 0m-1.28-6.096c.031-.62.152-1.204.212-1.79m4.628 1.64c.065-.643-.028-1.295-.078-1.94M3.412 36.061C.133 23.087 4.91 5.568 10.08 5.568m3.494-2.275C37.661-7.09 37.325 29.473 35.161 36.06m2.414 6.489c-2.268-3.355-8.022-6.107-14.307-7.167-1.3-.22-2.45 5.546-3.768 5.48-1.183-.058-2.47-5.966-3.522-5.91-8.285.44-12.606 4.11-14.553 6.051" stroke="#2FDADF" stroke-width="2.4" stroke-linecap="round" stroke-linejoin="round"/></svg>