<svg width="51" height="38" fill="none" xmlns="http://www.w3.org/2000/svg"><g clip-path="url(#clip0_4079_20889)"><path d="M.833 19c.067.153.167.355.3.609.133.253.433.747.9 1.482a36.48 36.48 0 001.55 2.242 46.44 46.44 0 002.1 2.584c.833.962 1.767 1.9 2.8 2.812a32.797 32.797 0 003.35 2.584c1.2.81 2.55 1.558 4.05 2.242 1.5.684 3.05 1.178 4.65 1.482 1.6.304 3.367.506 5.3.608 2.3 0 4.533-.304 6.7-.912 2.167-.608 4.05-1.406 5.65-2.394a43.096 43.096 0 004.55-3.23c1.433-1.166 2.633-2.356 3.6-3.572.967-1.216 1.8-2.293 2.5-3.23.7-.938 1.2-1.723 1.5-2.356l.5-.95-.3-.57c-.133-.254-.433-.76-.9-1.52a21.841 21.841 0 00-1.55-2.204c-.567-.71-1.267-1.584-2.1-2.622a17.165 17.165 0 00-2.8-2.774 276.17 276.17 0 00-3.35-2.584 16.856 16.856 0 00-4-2.242 39.47 39.47 0 00-4.7-1.52c-1.667-.43-3.433-.62-5.3-.57-2.3 0-4.533.304-6.7.912-2.167.608-4.05 1.406-5.65 2.394a43.09 43.09 0 00-4.55 3.23c-1.433 1.165-2.633 2.343-3.6 3.534a77.731 77.731 0 00-2.5 3.23c-.7.962-1.2 1.76-1.5 2.394l-.5.912zm9.4 0c0-2.153.7-4.141 2.1-5.965 1.4-1.824 3.283-3.256 5.65-4.294 2.367-1.039 4.983-1.57 7.85-1.596 2.133 0 4.15.316 6.05.95 1.9.633 3.567 1.469 5 2.508 1.433 1.038 2.55 2.305 3.35 3.8.8 1.494 1.217 3.027 1.25 4.598 0 2.153-.7 4.142-2.1 5.966-1.4 1.824-3.3 3.268-5.7 4.332-2.4 1.064-5.017 1.596-7.85 1.596-2.1 0-4.117-.317-6.05-.95-1.933-.634-3.6-1.482-5-2.546-1.4-1.064-2.517-2.318-3.35-3.762a8.758 8.758 0 01-1.2-4.636zm6.25 0c0 1.977.9 3.661 2.7 5.055 1.8 1.393 4.017 2.09 6.65 2.09s4.85-.697 6.65-2.09c1.8-1.394 2.717-3.078 2.75-5.054.033-1.976-.883-3.648-2.75-5.016-1.867-1.368-4.083-2.065-6.65-2.09-1 0-2.033.14-3.1.418v4.332h-5.7c-.367.785-.55 1.57-.55 2.356z" fill="#2FDADF"/></g><defs><clipPath id="clip0_4079_20889"><path fill="#fff" transform="translate(.833)" d="M0 0h50v38H0z"/></clipPath></defs></svg>