<svg width="61" height="60" fill="none" xmlns="http://www.w3.org/2000/svg"><path d="M52.667 42.676L39.492 45.6a42.725 42.725 0 01-9.425 1.05 42.82 42.82 0 01-9.425-1.05L7.667 42.676a4.65 4.65 0 01-3.75-4.525 4.65 4.65 0 015.675-4.55l11.15 2.5a44.247 44.247 0 009.425 1.025c3.17-.003 6.33-.347 9.425-1.025l11.15-2.5a4.649 4.649 0 015.675 4.55 4.65 4.65 0 01-3.75 4.525zM13.517 25l7.225 1.6c3.1.636 6.26.938 9.425.9a44.256 44.256 0 009.425-1.025L46.817 25" stroke="#2FDADF" stroke-width="4.775" stroke-miterlimit="10"/><path d="M11.992 34.125l3-18.075a6.2 6.2 0 016.125-5.2 6.125 6.125 0 013.475 1.05l5.575 3.725 5.575-3.725a6.125 6.125 0 013.475-1.05c1.474 0 2.9.522 4.025 1.475a6.15 6.15 0 012.1 3.725l3 18.075" stroke="#2FDADF" stroke-width="4.775" stroke-miterlimit="10"/></svg>