<svg width="51" height="50" fill="none" xmlns="http://www.w3.org/2000/svg"><g clip-path="url(#clip0_4079_20906)"><path d="M15.5 15h7.363a12.961 12.961 0 01-.363-3c0-1.034.134-2.035.363-3H15.5c-1.103 0-2 .897-2 2v2c0 1.103.897 2 2 2zm6.874 25.46A.974.974 0 0022.5 40a1 1 0 00-1-1h-1V19h1a1 1 0 001-1v-1h-6v1a1 1 0 001 1h1v20h-1a1 1 0 00-1 1c0 .169.052.32.126.46l-6.833 6.833a.999.999 0 101.414 1.414l7.293-7.293V49a1 1 0 102 0v-7.586l7.293 7.293a.997.997 0 001.414 0 .999.999 0 000-1.414l-6.833-6.833zM24.5 12c0 6.065 4.935 11 11 11V1c-6.065 0-11 4.935-11 11zm15-12h-2v24h2a1 1 0 001-1V1a1 1 0 00-1-1z" fill="#2FDADF"/></g><defs><clipPath id="clip0_4079_20906"><path fill="#fff" transform="translate(.5)" d="M0 0h50v50H0z"/></clipPath></defs></svg>