<svg width="61" height="60" fill="none" xmlns="http://www.w3.org/2000/svg"><path d="M15.833 12.5c-.668 0-1.002 0-1.291.022a7.5 7.5 0 00-6.805 6.158c-.05.285-.084.618-.15 1.283L5.885 36.476M25.833 37.5h10m-10 0c0 5.523-4.477 10-10 10s-10-4.477-10-10 4.477-10 10-10 10 4.477 10 10zm10 0c0 5.523 4.477 10 10 10s10-4.477 10-10-4.477-10-10-10-10 4.477-10 10zm10.038-25c.668 0 1.002 0 1.29.022a7.5 7.5 0 016.805 6.158c.051.285.084.618.15 1.283l1.668 16.542" stroke="#2FDADF" stroke-width="5" stroke-linecap="round" stroke-linejoin="round"/></svg>