<svg width="61" height="60" fill="none" xmlns="http://www.w3.org/2000/svg"><g clip-path="url(#clip0_4079_20920)" fill="#2FDADF"><path d="M5.359 7.513a.472.472 0 01-.473-.468c0-.26.205-.469.463-.469h.01a.469.469 0 010 .937zm1.874 0a.472.472 0 01-.473-.468c0-.26.205-.469.463-.469h.01a.469.469 0 010 .937zm1.875 0a.472.472 0 01-.474-.468c0-.26.205-.469.463-.469h.01a.469.469 0 010 .937zm41.237 12.184a.472.472 0 01-.473-.468c0-.26.205-.469.463-.469h.01a.47.47 0 010 .937zm9.344 20.604H.644a.466.466 0 01-.468-.468.468.468 0 01.468-.469H59.69a.466.466 0 01.468.469.47.47 0 01-.468.468zm-29.523 4.684a1.877 1.877 0 01-1.874-1.874c0-1.033.841-1.874 1.874-1.874 1.034 0 1.875.84 1.875 1.874a1.877 1.877 0 01-1.874 1.875zm0-2.811a.938.938 0 10.002 1.876.938.938 0 00-.002-1.876zm-7.96 14.997a.47.47 0 01-.458-.57l1.874-8.435a.47.47 0 01.853-.15.47.47 0 01.063.353l-1.875 8.435a.47.47 0 01-.457.367zm15.921 0a.469.469 0 01-.457-.367l-1.875-8.435a.47.47 0 01.916-.203l1.874 8.435a.47.47 0 01-.458.57z"/><path d="M39.54 57.173H20.795a.47.47 0 110-.938H39.54a.47.47 0 010 .938zm17.338-19.667H3.457a.47.47 0 01-.469-.469V6.11a.468.468 0 01.469-.468h53.421c.26 0 .469.21.469.468v30.928a.468.468 0 01-.469.469zm-52.952-.937h52.483V6.578H3.927v29.99z"/><path d="M56.877 46.877H3.456a3.284 3.284 0 01-3.28-3.28V6.108a3.284 3.284 0 013.28-3.28h53.421a3.284 3.284 0 013.28 3.28v37.489a3.284 3.284 0 01-3.28 3.28zM3.456 3.765a2.346 2.346 0 00-2.343 2.343v37.489a2.345 2.345 0 002.343 2.343h53.421a2.345 2.345 0 002.343-2.343V6.108a2.345 2.345 0 00-2.343-2.343H3.456z"/><path d="M56.877 48.736H3.456c-1.84 0-3.28-1.44-3.28-3.28v-1.874a.468.468 0 11.937 0v1.874A2.318 2.318 0 003.456 47.8h53.421a2.317 2.317 0 002.343-2.343v-1.86a.468.468 0 11.938 0v1.86c0 1.84-1.441 3.28-3.28 3.28zm0-40.285H3.456a.468.468 0 110-.937h53.421a.468.468 0 110 .937zM6.267 35.63a.47.47 0 01-.468-.47V9.857a.468.468 0 11.937 0V35.16a.468.468 0 01-.468.47z"/><path d="M48.442 37.505a.468.468 0 01-.468-.47V7.983a.468.468 0 11.937 0v29.054a.47.47 0 01-.469.468z"/><path d="M56.878 15.95h-8.435a.468.468 0 110-.938h8.435a.469.469 0 110 .937zm-50.61-2.813H3.457a.468.468 0 110-.937h2.812a.468.468 0 110 .938zm0 2.812H3.457a.468.468 0 110-.937h2.812a.468.468 0 110 .937zm0 2.812H3.457a.468.468 0 110-.937h2.812a.468.468 0 110 .937zm0 2.812H3.457a.466.466 0 01-.469-.47.469.469 0 01.469-.468h2.812a.466.466 0 01.468.469.469.469 0 01-.469.469zm0 2.811H3.457a.47.47 0 010-.937h2.812a.47.47 0 110 .937zm0 2.812H3.457a.47.47 0 010-.938h2.812a.47.47 0 110 .938zm0 2.811H3.457a.466.466 0 01-.469-.468.469.469 0 01.469-.469h2.812a.466.466 0 01.468.469.468.468 0 01-.469.468zm0 2.812H3.457a.468.468 0 110-.937h2.812a.466.466 0 01.468.468.469.469 0 01-.469.469zm0 2.812H3.457a.47.47 0 010-.937h2.812a.468.468 0 110 .937zm0-25.305H3.457a.468.468 0 110-.937h2.812a.468.468 0 110 .937zm48.736.937h-4.686a.468.468 0 110-.937h4.686a.468.468 0 110 .937zm0 1.874h-4.686a.468.468 0 110-.937h4.686a.468.468 0 110 .938zm0 6.561h-2.812a.468.468 0 110-.937h2.812a.468.468 0 110 .937zm-4.658 2.812a.472.472 0 01-.473-.469c0-.259.205-.469.463-.469h.01a.469.469 0 010 .938zm4.658 0h-2.812a.468.468 0 110-.938h2.812a.468.468 0 110 .938zm-4.658 2.811a.472.472 0 01-.473-.468c0-.26.205-.469.463-.469h.01a.468.468 0 010 .937zm4.658 0h-2.812a.468.468 0 110-.937h2.812a.47.47 0 110 .937zm-4.658 2.812a.472.472 0 01-.473-.469c0-.259.205-.468.463-.468h.01a.469.469 0 110 .937zm4.658 0h-2.812a.468.468 0 110-.937h2.812a.468.468 0 110 .937zm-4.658 2.812a.472.472 0 01-.473-.469c0-.259.205-.468.463-.468h.01a.468.468 0 010 .937zm4.658 0h-2.812a.468.468 0 110-.938h2.812a.468.468 0 110 .938zm-4.659 2.811a.472.472 0 01-.473-.469c0-.259.205-.469.463-.469h.01a.468.468 0 010 .938zm4.658 0h-2.812a.468.468 0 110-.938h2.812a.468.468 0 110 .938zM32.51 37.505H10.017a.47.47 0 01-.47-.468v-.956c0-1.788.952-2.495 2.595-3.11.322-.12.758-.238 1.244-.37 1.458-.395 3.66-.99 3.66-2.125a.468.468 0 11.937 0c0 1.852-2.515 2.532-4.351 3.029-.454.124-.862.232-1.162.345-1.558.583-1.985 1.063-1.985 2.231v.487h21.556v-.487c0-1.168-.426-1.648-1.984-2.231-.3-.113-.709-.222-1.163-.345-1.836-.497-4.35-1.178-4.35-3.029a.468.468 0 11.937 0c0 1.134 2.2 1.73 3.658 2.124.487.133.924.251 1.246.371 1.643.615 2.593 1.322 2.593 3.11v.956a.468.468 0 01-.468.468z"/><path d="M17.515 30.944a.47.47 0 01-.469-.469v-2.214a.468.468 0 11.938 0v2.214a.47.47 0 01-.469.469zm7.498 0a.47.47 0 01-.469-.469v-2.268a.468.468 0 11.938 0v2.268a.468.468 0 01-.47.469zm-12.184 2.765a.47.47 0 01-.469-.469V20.166a.468.468 0 11.938 0V33.24a.47.47 0 01-.469.469zm16.868 0a.47.47 0 01-.469-.469l.004-13.074a.469.469 0 01.937 0l-.003 13.074a.47.47 0 01-.469.469z"/><path d="M29.7 20.636a.468.468 0 01-.468-.469c0-1.869-.575-7.966-7.968-7.966-6.535 0-7.966 5.75-7.966 7.966a.468.468 0 11-.938 0c0-2.476 1.6-8.903 8.904-8.903 6.566 0 8.905 4.599 8.905 8.903a.468.468 0 01-.468.469zm-8.436 10.31c-1.975 0-6.372-3.418-6.964-7.906a.469.469 0 01.93-.122c.53 4.021 4.555 7.09 6.034 7.09 1.668 0 6.092-3.671 6.092-8.083a.47.47 0 11.937 0c0 4.752-4.774 9.02-7.03 9.02z"/><path d="M12.827 22.509a.47.47 0 01-.381-.74.47.47 0 01.303-.19c.1-.018 9.972-1.771 14.84-7.345a.47.47 0 01.82.277.469.469 0 01-.114.34c-5.089 5.827-14.97 7.58-15.387 7.65a.505.505 0 01-.08.008z"/><path d="M29.698 21.572a.45.45 0 01-.075-.006c-3.656-.58-5.83-3.393-5.921-3.513a.469.469 0 01.746-.567c.02.026 2.046 2.635 5.322 3.154a.47.47 0 01-.072.931zM14.703 37.504a.466.466 0 01-.469-.468V32.71a.468.468 0 11.938 0v4.325c0 .258-.21.468-.469.468zm13.12 0a.466.466 0 01-.468-.468V32.71a.466.466 0 01.469-.469.47.47 0 01.468.469v4.325a.466.466 0 01-.468.468zm16.871-7.497h-10.31a.47.47 0 01-.468-.469V14.543a.47.47 0 01.469-.469h10.31a.47.47 0 01.468.469v14.995a.467.467 0 01-.469.469zm-9.84-.937h9.371V15.01h-9.372v14.06z"/><path d="M38.133 19.698c-.775 0-1.406-.63-1.406-1.405 0-.776.631-1.406 1.406-1.406a1.406 1.406 0 010 2.811zm0-1.874a.47.47 0 10.002.939.47.47 0 00-.002-.939z"/><path d="M42.82 18.762h-3.75a.468.468 0 110-.938h3.75a.468.468 0 110 .938zm-5.624 0h-.937a.468.468 0 110-.938h.937a.468.468 0 110 .938zm.937 8.434c-.775 0-1.406-.63-1.406-1.405a1.407 1.407 0 012.812-.001c0 .776-.63 1.406-1.406 1.406zm0-1.874a.47.47 0 10.002.939.47.47 0 00-.002-.939z"/><path d="M42.82 26.258h-3.75a.47.47 0 110-.938h3.75a.468.468 0 110 .938zm-5.624 0h-.937a.47.47 0 110-.938h.937a.468.468 0 110 .938zm3.749-2.812a1.407 1.407 0 111.406-1.405c0 .775-.631 1.405-1.406 1.405zm0-1.874a.47.47 0 10.001.939.47.47 0 00-.001-.939z"/><path d="M40.007 22.51H36.26a.468.468 0 110-.938h3.748a.468.468 0 110 .938zm2.812 0h-.937a.468.468 0 110-.938h.937a.468.468 0 110 .938z"/></g><defs><clipPath id="clip0_4079_20920"><path fill="#fff" transform="translate(.167)" d="M0 0h60v60H0z"/></clipPath></defs></svg>