<svg width="52" height="45" viewBox="0 0 52 45" fill="none" xmlns="http://www.w3.org/2000/svg">
<path d="M26.0508 36.9648C32.264 36.9648 37.3008 31.9281 37.3008 25.7148C37.3008 19.5016 32.264 14.4648 26.0508 14.4648C19.8376 14.4648 14.8008 19.5016 14.8008 25.7148C14.8008 31.9281 19.8376 36.9648 26.0508 36.9648ZM26.0508 16.072C31.376 16.072 35.6936 20.3896 35.6936 25.7148C35.6936 31.0401 31.376 35.3577 26.0508 35.3577C20.7255 35.3577 16.4079 31.0401 16.4079 25.7148C16.4079 20.3896 20.7255 16.072 26.0508 16.072Z" fill="#2FDADF"/>
<path d="M48.5507 6.42857C48.5507 6.42857 42.9257 6.42857 42.1221 6.42857C41.3186 6.42857 40.8509 6.43179 39.8778 5.45866C38.9046 4.48554 35.4276 1.00848 35.4276 1.00848C35.2765 0.857411 34.3516 0 33.2829 0C32.2141 0 19.9862 0 18.8186 0C17.651 0 16.8112 0.871071 16.6602 1.02134C16.6602 1.02134 13.1839 4.49759 12.2237 5.45786C11.2634 6.41812 10.7973 6.42857 9.97928 6.42857V4.01786C9.97928 3.57348 9.62009 3.21429 9.17571 3.21429H4.35428C3.90991 3.21429 3.55071 3.57348 3.55071 4.01786V6.42857C1.77402 6.42857 0.336426 7.86616 0.336426 9.64286V41.7857C0.336426 43.5624 1.77402 45 3.55071 45H48.5507C50.3274 45 51.765 43.5624 51.765 41.7857V9.64286C51.765 7.86616 50.3274 6.42857 48.5507 6.42857ZM5.15785 4.82143H8.37214V6.42857C7.37571 6.42857 6.1366 6.42857 5.15785 6.42857V4.82143ZM3.55071 8.03571C3.55071 8.03571 9.97928 8.03571 10.7829 8.03571C11.5864 8.03571 12.4117 7.54312 12.9581 6.9967C13.5046 6.45027 17.2018 2.75304 17.7667 2.18812C18.3316 1.62321 19.2204 1.60714 19.2204 1.60714H32.8811C32.8811 1.60714 33.7441 1.5975 34.3532 2.20661C34.9623 2.81571 38.5438 6.39723 39.1433 6.9967C39.7428 7.59616 40.515 8.03571 41.3186 8.03571C42.1221 8.03571 48.5507 8.03571 48.5507 8.03571C49.4379 8.03571 50.1579 8.75571 50.1579 9.64286V19.2857H38.9938C36.6257 14.527 31.7263 11.25 26.0507 11.25C20.3751 11.25 15.4757 14.527 13.1076 19.2857H1.94357V9.64286C1.94357 8.75571 2.66357 8.03571 3.55071 8.03571ZM26.0507 12.8571C33.1519 12.8571 38.9079 18.6131 38.9079 25.7143C38.9079 32.8162 33.1519 38.5714 26.0507 38.5714C18.9496 38.5714 13.1936 32.8162 13.1936 25.7143C13.1936 18.6131 18.9496 12.8571 26.0507 12.8571ZM48.5507 43.3929H3.55071C2.66357 43.3929 1.94357 42.6729 1.94357 41.7857V20.8929H12.427C11.8926 22.4028 11.5864 24.0212 11.5864 25.7143C11.5864 33.7026 18.0624 40.1786 26.0507 40.1786C34.039 40.1786 40.515 33.7026 40.515 25.7143C40.515 24.0212 40.2088 22.4028 39.6745 20.8929H50.1579V41.7857C50.1579 42.6729 49.4379 43.3929 48.5507 43.3929Z" fill="#2FDADF"/>
<path d="M26.0506 20.8923C28.7129 20.8923 30.8721 23.0515 30.8721 25.7137C30.8721 26.1581 31.2313 26.5173 31.6756 26.5173C32.12 26.5173 32.4792 26.1581 32.4792 25.7137C32.4792 22.1635 29.6008 19.2852 26.0506 19.2852C25.6063 19.2852 25.2471 19.6444 25.2471 20.0887C25.2471 20.5331 25.6063 20.8923 26.0506 20.8923Z" fill="#2FDADF"/>
<path d="M44.5328 16.0714C45.8643 16.0714 46.9435 14.9914 46.9435 13.6607C46.9435 12.33 45.8643 11.25 44.5328 11.25C43.2013 11.25 42.1221 12.33 42.1221 13.6607C42.1221 14.9914 43.2013 16.0714 44.5328 16.0714ZM44.5328 12.8571C44.9772 12.8571 45.3364 13.2163 45.3364 13.6607C45.3364 14.1051 44.9772 14.4643 44.5328 14.4643C44.0884 14.4643 43.7292 14.1051 43.7292 13.6607C43.7292 13.2163 44.0884 12.8571 44.5328 12.8571Z" fill="#2FDADF"/>
</svg>
