<svg width="193" height="35" viewBox="0 0 193 35" fill="none" xmlns="http://www.w3.org/2000/svg">
<g clip-path="url(#clip0_4079_20009)">
<path d="M70.7505 4.375C70.7505 1.95875 72.7318 0 75.1758 0H119.429C121.873 0 123.854 1.95875 123.854 4.375V30.625C123.854 33.0412 121.873 35 119.429 35H75.1758C72.7318 35 70.7505 33.0412 70.7505 30.625V4.375Z" fill="white"/>
<path d="M116.453 10.9727H113.671C112.83 10.9727 112.183 11.2285 111.795 12.06L106.49 24.0209H110.242C110.242 24.0209 110.889 22.4218 111.019 22.0381C111.407 22.0381 115.094 22.0381 115.612 22.0381C115.741 22.4858 116.065 23.9569 116.065 23.9569H119.429L116.453 10.9727ZM112.054 19.3517C112.377 18.5841 113.477 15.7058 113.477 15.7058C113.477 15.7698 113.801 14.9383 113.93 14.4906L114.189 15.6419C114.189 15.6419 114.9 18.776 115.03 19.4156H112.054V19.3517Z" fill="#3362AB"/>
<path d="M106.748 19.7379C106.748 22.4243 104.289 24.2152 100.472 24.2152C98.8547 24.2152 97.302 23.8954 96.4609 23.5116L96.9785 20.5694L97.4314 20.7613C98.5959 21.273 99.3723 21.4648 100.796 21.4648C101.831 21.4648 102.931 21.0811 102.931 20.1856C102.931 19.6099 102.478 19.2262 101.054 18.5866C99.6958 17.9469 97.8843 16.9235 97.8843 15.0687C97.8843 12.5102 100.407 10.7832 103.966 10.7832C105.324 10.7832 106.489 11.0391 107.201 11.3589L106.683 14.1732L106.424 13.9173C105.777 13.6615 104.936 13.4056 103.707 13.4056C102.348 13.4696 101.701 14.0453 101.701 14.557C101.701 15.1326 102.478 15.5803 103.707 16.156C105.777 17.1154 106.748 18.2028 106.748 19.7379Z" fill="#3362AB"/>
<path d="M75.1758 11.1016L75.2405 10.8457H80.8044C81.5808 10.8457 82.1631 11.1016 82.3572 11.9331L83.5864 17.6896C82.3572 14.6195 79.5105 12.1249 75.1758 11.1016Z" fill="#F9B50B"/>
<path d="M91.415 10.9741L85.7864 23.9584H81.9692L78.7344 13.0849C81.0635 14.556 83.0044 16.8586 83.7161 18.4577L84.1042 19.8009L87.5979 10.9102H91.415V10.9741Z" fill="#3362AB"/>
<path d="M92.9031 10.9102H96.4614L94.197 23.9584H90.6387L92.9031 10.9102Z" fill="#3362AB"/>
</g>
<g clip-path="url(#clip1_4079_20009)">
<path d="M0.5 4.375C0.5 1.95875 2.5263 0 5.02586 0H50.2844C52.784 0 54.8103 1.95875 54.8103 4.375V30.625C54.8103 33.0412 52.784 35 50.2844 35H5.02586C2.52629 35 0.5 33.0412 0.5 30.625V4.375Z" fill="white"/>
<path d="M12.6868 12.5972C12.1195 12.2202 11.3793 12.0312 10.4661 12.0312H6.93058C6.65063 12.0312 6.49596 12.1666 6.46658 12.437L5.03039 21.1518C5.01546 21.2374 5.03761 21.3157 5.09664 21.3869C5.15534 21.4582 5.22916 21.4936 5.31757 21.4936H6.99691C7.29145 21.4936 7.45335 21.3586 7.48307 21.0879L7.88075 18.7384C7.89527 18.6245 7.94707 18.5319 8.03548 18.4606C8.12383 18.3895 8.23432 18.3429 8.36691 18.3216C8.49949 18.3005 8.62451 18.2898 8.74257 18.2898C8.86029 18.2898 9.00017 18.297 9.16247 18.3112C9.32437 18.3253 9.42757 18.3323 9.47181 18.3323C10.7386 18.3323 11.7329 17.9873 12.4549 17.2964C13.1765 16.6059 13.5377 15.6483 13.5377 14.4234C13.5377 13.5832 13.2538 12.9745 12.6868 12.597V12.5972ZM10.864 15.214C10.7901 15.7125 10.5988 16.0398 10.2895 16.1965C9.98005 16.3534 9.53813 16.4315 8.9637 16.4315L8.23446 16.4528L8.61019 14.1672C8.6395 14.0107 8.73521 13.9323 8.89737 13.9323H9.31734C9.9063 13.9323 10.3338 14.0144 10.5989 14.1779C10.864 14.3418 10.9524 14.6872 10.864 15.214Z" fill="#003087"/>
<path d="M49.9965 12.0312H48.3615C48.199 12.0312 48.1034 12.1096 48.0742 12.2664L46.6379 21.1522L46.6157 21.1949C46.6157 21.2665 46.6452 21.3338 46.7043 21.3979C46.7628 21.4619 46.8369 21.494 46.9251 21.494H48.3837C48.6632 21.494 48.8179 21.3589 48.8478 21.0882L50.284 12.3518V12.3306C50.2839 12.1311 50.1879 12.0315 49.9965 12.0315V12.0312Z" fill="#009CDE"/>
<path d="M30.2423 15.4729C30.2423 15.4018 30.2128 15.334 30.1542 15.2701C30.0951 15.2061 30.0288 15.1738 29.9553 15.1738H28.2539C28.0915 15.1738 27.9589 15.2454 27.856 15.3874L25.5138 18.7197L24.5415 15.5157C24.4675 15.288 24.3057 15.1738 24.0554 15.1738H22.3979C22.3241 15.1738 22.2578 15.206 22.1993 15.2701C22.1402 15.334 22.1108 15.4019 22.1108 15.4729C22.1108 15.5015 22.2545 15.9215 22.5417 16.7331C22.8289 17.5451 23.1382 18.4209 23.4697 19.3608C23.8012 20.3005 23.9742 20.7992 23.989 20.8556C22.7809 22.4508 22.1772 23.3052 22.1772 23.4189C22.1772 23.6042 22.2727 23.6966 22.4644 23.6966H24.1659C24.3278 23.6966 24.4603 23.6256 24.5637 23.4831L30.1984 15.6223C30.2277 15.5941 30.2423 15.5445 30.2423 15.4728V15.4729Z" fill="#003087"/>
<path d="M46.0872 15.171H44.4078C44.2013 15.171 44.0766 15.406 44.0323 15.8761C43.6488 15.3066 42.9496 15.0215 41.9329 15.0215C40.8723 15.0215 39.9699 15.406 39.2262 16.175C38.4822 16.944 38.1104 17.8485 38.1104 18.8879C38.1104 19.7283 38.3644 20.3975 38.8725 20.8957C39.3808 21.3945 40.062 21.6434 40.9167 21.6434C41.3438 21.6434 41.7784 21.5578 42.2203 21.387C42.6622 21.2162 43.0081 20.9884 43.259 20.7035C43.259 20.7178 43.2439 20.7817 43.2148 20.8955C43.185 21.0097 43.1705 21.0954 43.1705 21.1519C43.1705 21.38 43.266 21.4936 43.4578 21.4936H44.9826C45.2622 21.4936 45.4244 21.3586 45.4684 21.0878L46.3746 15.5127C46.3891 15.4272 46.3671 15.349 46.3082 15.2777C46.249 15.2067 46.1755 15.171 46.0872 15.171ZM43.2036 19.3792C42.828 19.7352 42.3749 19.9131 41.8446 19.9131C41.4173 19.9131 41.0714 19.7994 40.8061 19.5714C40.5408 19.344 40.4082 19.0307 40.4082 18.6315C40.4082 18.105 40.5924 17.6596 40.9608 17.2966C41.3286 16.9334 41.7857 16.7519 42.3307 16.7519C42.7429 16.7519 43.0854 16.8694 43.3582 17.1042C43.6305 17.3393 43.7672 17.6632 43.7672 18.0763C43.767 18.5889 43.5792 19.0233 43.2036 19.3792Z" fill="#009CDE"/>
<path d="M20.9844 15.171H19.305C19.0985 15.171 18.9735 15.406 18.9293 15.8761C18.5315 15.3066 17.8317 15.0215 16.83 15.0215C15.7694 15.0215 14.867 15.406 14.1232 16.175C13.3791 16.944 13.0073 17.8485 13.0073 18.8879C13.0073 19.7283 13.2615 20.3975 13.7697 20.8957C14.278 21.3945 14.9591 21.6434 15.8136 21.6434C16.2259 21.6434 16.6534 21.5578 17.0952 21.387C17.5371 21.2162 17.8907 20.9884 18.1559 20.7035C18.0968 20.8742 18.0675 21.0238 18.0675 21.1519C18.0675 21.38 18.1632 21.4936 18.3547 21.4936H19.8794C20.159 21.4936 20.3213 21.3586 20.3655 21.0878L21.2714 15.5127C21.286 15.4272 21.2639 15.349 21.2052 15.2777C21.1462 15.2067 21.0727 15.171 20.9844 15.171ZM18.1008 19.3898C17.725 19.7391 17.2645 19.9131 16.7198 19.9131C16.2923 19.9131 15.9498 19.7994 15.6922 19.5714C15.4343 19.344 15.3055 19.0307 15.3055 18.6315C15.3055 18.105 15.4895 17.6596 15.8579 17.2966C16.226 16.9334 16.6827 16.7519 17.2279 16.7519C17.6402 16.7519 17.9827 16.8694 18.2555 17.1042C18.5278 17.3393 18.6642 17.6632 18.6642 18.0763C18.6642 18.6032 18.4764 19.0412 18.1008 19.3898Z" fill="#003087"/>
<path d="M37.789 12.5972C37.2218 12.2202 36.4817 12.0312 35.5683 12.0312H32.0548C31.7602 12.0312 31.598 12.1666 31.5688 12.437L30.1324 21.1518C30.1175 21.2374 30.1397 21.3157 30.1988 21.3869C30.2572 21.4582 30.3312 21.4936 30.4196 21.4936H32.2315C32.4082 21.4936 32.526 21.4012 32.5851 21.216L32.9829 18.7384C32.9975 18.6245 33.049 18.5319 33.1376 18.4606C33.226 18.3895 33.3364 18.3429 33.4691 18.3216C33.6015 18.3005 33.7265 18.2898 33.8447 18.2898C33.9625 18.2898 34.1023 18.297 34.2644 18.3112C34.4264 18.3253 34.5299 18.3323 34.5738 18.3323C35.8408 18.3323 36.835 17.9873 37.5569 17.2964C38.2788 16.6059 38.6397 15.6483 38.6397 14.4234C38.6397 13.5832 38.356 12.9745 37.789 12.597V12.5972ZM35.5241 16.111C35.2 16.3245 34.7138 16.4313 34.0658 16.4313L33.3586 16.4527L33.7342 14.1671C33.7634 14.0106 33.8592 13.9321 34.0214 13.9321H34.419C34.7432 13.9321 35.0009 13.9464 35.1927 13.9748C35.3839 14.0034 35.5683 14.0923 35.7451 14.2418C35.922 14.3913 36.0102 14.6086 36.0102 14.8933C36.0102 15.4916 35.848 15.8972 35.5241 16.111Z" fill="#009CDE"/>
</g>
<g clip-path="url(#clip2_4079_20009)">
<path d="M139.794 4.375C139.794 1.95875 141.775 0 144.219 0H188.472C190.916 0 192.897 1.95875 192.897 4.375V30.625C192.897 33.0412 190.916 35 188.472 35H144.219C141.775 35 139.794 33.0412 139.794 30.625V4.375Z" fill="white"/>
<path d="M172.153 27.823H160.538V7.18555H172.153V27.823Z" fill="#6C6BBD"/>
<path d="M161.282 17.5C161.282 13.3136 163.265 9.58447 166.352 7.18127C164.094 5.42393 161.245 4.37503 158.148 4.37503C150.817 4.37503 144.874 10.2512 144.874 17.5C144.874 24.7488 150.817 30.625 158.148 30.625C161.245 30.625 164.094 29.5761 166.352 27.8188C163.265 25.4156 161.282 21.6864 161.282 17.5Z" fill="#EB001B"/>
<path d="M187.818 17.5C187.818 24.7488 181.876 30.625 174.544 30.625C171.447 30.625 168.598 29.5761 166.339 27.8188C169.428 25.4156 171.41 21.6864 171.41 17.5C171.41 13.3136 169.428 9.58447 166.339 7.18127C168.598 5.42393 171.447 4.37503 174.544 4.37503C181.876 4.37503 187.818 10.2512 187.818 17.5Z" fill="#0099DF"/>
</g>
<defs>
<clipPath id="clip0_4079_20009">
<rect width="53.1034" height="35" fill="white" transform="translate(70.7505)"/>
</clipPath>
<clipPath id="clip1_4079_20009">
<rect width="54.3103" height="35" fill="white" transform="translate(0.5)"/>
</clipPath>
<clipPath id="clip2_4079_20009">
<rect width="53.1034" height="35" fill="white" transform="translate(139.794)"/>
</clipPath>
</defs>
</svg>
