<svg width="15" height="18" viewBox="0 0 15 18" fill="none" xmlns="http://www.w3.org/2000/svg">
<path d="M11.8125 4.8125H15V14.9062C15 15.6367 14.7344 16.2565 14.2031 16.7656C13.694 17.2969 13.0742 17.5625 12.3438 17.5625H2.78125C2.05078 17.5625 1.41992 17.2969 0.888672 16.7656C0.379557 16.2565 0.125 15.6367 0.125 14.9062V4.8125H3.3125C3.3125 3.63932 3.72201 2.64323 4.54102 1.82422C5.38216 0.983073 6.38932 0.5625 7.5625 0.5625C8.73568 0.5625 9.73177 0.983073 10.5508 1.82422C11.3919 2.64323 11.8125 3.63932 11.8125 4.8125ZM9.42188 2.95312C8.91276 2.42188 8.29297 2.15625 7.5625 2.15625C6.83203 2.15625 6.20117 2.42188 5.66992 2.95312C5.16081 3.46224 4.90625 4.08203 4.90625 4.8125H10.2188C10.2188 4.08203 9.95312 3.46224 9.42188 2.95312ZM13.4062 14.9062V6.40625H11.8125V7.73438C11.8125 7.95573 11.735 8.14388 11.5801 8.29883C11.4251 8.45378 11.237 8.53125 11.0156 8.53125C10.7943 8.53125 10.6061 8.45378 10.4512 8.29883C10.2962 8.14388 10.2188 7.95573 10.2188 7.73438V6.40625H4.90625V7.73438C4.90625 7.95573 4.82878 8.14388 4.67383 8.29883C4.51888 8.45378 4.33073 8.53125 4.10938 8.53125C3.88802 8.53125 3.69987 8.45378 3.54492 8.29883C3.38997 8.14388 3.3125 7.95573 3.3125 7.73438V6.40625H1.71875V14.9062C1.71875 15.194 1.81836 15.4375 2.01758 15.6367C2.23893 15.8581 2.49349 15.9688 2.78125 15.9688H12.3438C12.6315 15.9688 12.875 15.8581 13.0742 15.6367C13.2956 15.4375 13.4062 15.194 13.4062 14.9062Z" fill="black"/>
</svg>
