<svg width="33" height="30" viewBox="0 0 33 30" fill="none" xmlns="http://www.w3.org/2000/svg">
<path fill-rule="evenodd" clip-rule="evenodd" d="M5.95312 12.3675C5.95312 10.2671 7.6558 8.56445 9.75615 8.56445C11.8565 8.56445 13.5592 10.2671 13.5592 12.3675C13.5592 14.4679 11.8565 16.1705 9.75615 16.1705C7.65581 16.1705 5.95312 14.4679 5.95312 12.3675ZM9.75615 10.6388C8.80144 10.6388 8.0275 11.4128 8.0275 12.3675C8.0275 13.3222 8.80143 14.0961 9.75615 14.0961C10.7109 14.0961 11.4848 13.3222 11.4848 12.3675C11.4848 11.4128 10.7109 10.6388 9.75615 10.6388Z" fill="black"/>
<path fill-rule="evenodd" clip-rule="evenodd" d="M14.1064 21.5014C12.3781 23.4367 10.5755 26.084 8.66983 29.4712C8.38895 29.9704 7.75654 30.1474 7.25731 29.8666C6.75808 29.5857 6.58107 28.9533 6.86195 28.454C8.80762 24.9958 10.694 22.2082 12.5591 20.1197C14.4195 18.0364 16.3092 16.5916 18.2737 15.9113C20.2759 15.218 22.275 15.3477 24.2461 16.2666C26.1826 17.1692 28.0588 18.8158 29.9221 21.1023C30.284 21.5463 30.2174 22.1996 29.7733 22.5615C29.3293 22.9234 28.6759 22.8567 28.3141 22.4127C26.5541 20.2531 24.9125 18.8659 23.3697 18.1467C21.8615 17.4437 20.4197 17.3634 18.9525 17.8715C17.4476 18.3926 15.8394 19.5608 14.1064 21.5014Z" fill="black"/>
<path fill-rule="evenodd" clip-rule="evenodd" d="M2.34585 4.95709C3.57779 3.72515 5.24861 3.0332 6.99074 3.0332H19.921C20.4939 3.0332 20.9582 3.49757 20.9582 4.07039C20.9582 4.64322 20.4939 5.10758 19.921 5.10758H6.99074C5.79868 5.10758 4.65551 5.58104 3.81265 6.4239L3.81265 6.4239C2.96978 7.26676 2.49625 8.41003 2.49625 9.60207V23.4313C2.49625 24.6233 2.96973 25.7663 3.81263 26.6093C3.81265 26.6093 3.81266 26.6093 3.81268 26.6093M2.34585 4.95709C2.34585 4.95709 2.34585 4.95709 2.34585 4.95709C1.11392 6.189 0.421875 7.85992 0.421875 9.60207V23.4313C0.421875 25.1735 1.11396 26.8441 2.34582 28.0761L2.34587 28.0761C3.57774 29.3079 5.24852 30.0001 6.99074 30.0001H23.5858C25.328 30.0001 26.9988 29.3079 28.2306 28.0761C29.4626 26.8441 30.1546 25.1735 30.1546 23.4313V12.3679C30.1546 11.7951 29.6903 11.3307 29.1174 11.3307C28.5446 11.3307 28.0803 11.7951 28.0803 12.3679V23.4313C28.0803 24.6233 27.6068 25.7663 26.7638 26.6093C25.921 27.4521 24.7778 27.9257 23.5858 27.9257H6.99074C5.79879 27.9257 4.6556 27.4522 3.81268 26.6093" fill="black"/>
<path fill-rule="evenodd" clip-rule="evenodd" d="M30.2349 2.32529C30.0656 2.16113 29.8381 2.07089 29.6021 2.07448C29.3662 2.07807 29.1415 2.17523 28.9774 2.34442L28.9662 2.35576L21.927 9.39477C21.927 9.39477 21.927 9.39478 21.927 9.39478C21.8885 9.43336 21.8007 9.55398 21.7056 9.78998C21.616 10.0125 21.5436 10.2789 21.4999 10.5467C21.4661 10.7536 21.4531 10.9389 21.4555 11.0867C21.6062 11.089 21.7952 11.0752 22.005 11.0403C22.2716 10.9959 22.535 10.9233 22.7539 10.8341C22.9865 10.7393 23.1016 10.6532 23.1359 10.6182L23.1438 10.6102L30.1967 3.57101C30.2507 3.51713 30.31 3.4698 30.3734 3.42954C30.4612 3.28666 30.5076 3.12065 30.5051 2.95037M21.204 11.0597C21.2041 11.0595 21.207 11.0603 21.2121 11.0623C21.2064 11.0608 21.2039 11.0598 21.204 11.0597ZM21.4798 11.3288C21.4825 11.3357 21.4836 11.3396 21.4834 11.3398C21.4832 11.34 21.4819 11.3365 21.4798 11.3288ZM31.6791 0.836222C31.1148 0.288926 30.3564 -0.0116236 29.5705 0.000344192L29.5863 1.03741L29.5705 0.000344258C28.7876 0.0122677 28.0412 0.333513 27.4944 0.893959L20.4602 7.92795L20.4602 7.92796C20.1462 8.24203 19.9297 8.64692 19.7814 9.01506C19.6278 9.39668 19.5178 9.81312 19.4526 10.2125C19.388 10.6083 19.3611 11.0256 19.3967 11.4064C19.4263 11.7244 19.5191 12.2682 19.9181 12.6554C20.3071 13.033 20.8398 13.1203 21.1583 13.1477C21.5372 13.1803 21.952 13.1521 22.346 13.0865C22.7433 13.0203 23.1574 12.9096 23.5367 12.7551C23.9004 12.6069 24.3017 12.3903 24.6125 12.0751L31.4739 5.22702C31.573 5.17595 31.6641 5.10877 31.7432 5.0272C32.2903 4.46306 32.5911 3.70461 32.5792 2.91865L32.5792 2.91837C32.5671 2.13262 32.2436 1.38362 31.6791 0.836222ZM30.5051 2.95009C30.5014 2.7141 30.4042 2.4895 30.235 2.32542L30.2349 2.32529" fill="black"/>
</svg>
