<svg width="16" height="17" viewBox="0 0 16 17" fill="none" xmlns="http://www.w3.org/2000/svg">
<path d="M12.1875 4.25H15.375V14.3438C15.375 15.0742 15.1094 15.694 14.5781 16.2031C14.069 16.7344 13.4492 17 12.7188 17H3.15625C2.42578 17 1.79492 16.7344 1.26367 16.2031C0.754557 15.694 0.5 15.0742 0.5 14.3438V4.25H3.6875C3.6875 3.07682 4.09701 2.08073 4.91602 1.26172C5.75716 0.420573 6.76432 0 7.9375 0C9.11068 0 10.1068 0.420573 10.9258 1.26172C11.7669 2.08073 12.1875 3.07682 12.1875 4.25ZM9.79688 2.39062C9.28776 1.85938 8.66797 1.59375 7.9375 1.59375C7.20703 1.59375 6.57617 1.85938 6.04492 2.39062C5.53581 2.89974 5.28125 3.51953 5.28125 4.25H10.5938C10.5938 3.51953 10.3281 2.89974 9.79688 2.39062ZM13.7812 14.3438V5.84375H12.1875V7.17188C12.1875 7.39323 12.11 7.58138 11.9551 7.73633C11.8001 7.89128 11.612 7.96875 11.3906 7.96875C11.1693 7.96875 10.9811 7.89128 10.8262 7.73633C10.6712 7.58138 10.5938 7.39323 10.5938 7.17188V5.84375H5.28125V7.17188C5.28125 7.39323 5.20378 7.58138 5.04883 7.73633C4.89388 7.89128 4.70573 7.96875 4.48438 7.96875C4.26302 7.96875 4.07487 7.89128 3.91992 7.73633C3.76497 7.58138 3.6875 7.39323 3.6875 7.17188V5.84375H2.09375V14.3438C2.09375 14.6315 2.19336 14.875 2.39258 15.0742C2.61393 15.2956 2.86849 15.4062 3.15625 15.4062H12.7188C13.0065 15.4062 13.25 15.2956 13.4492 15.0742C13.6706 14.875 13.7812 14.6315 13.7812 14.3438Z" fill="black"/>
</svg>
