<svg width="39" height="23" viewBox="0 0 39 23" fill="none" xmlns="http://www.w3.org/2000/svg">
<path d="M1.13889 12.7778H4.97222C5.32617 12.7778 5.61111 13.0627 5.61111 13.4167C5.61111 13.7706 5.32617 14.0556 4.97222 14.0556H1.13889C0.784944 14.0556 0.5 13.7706 0.5 13.4167C0.5 13.0627 0.784944 12.7778 1.13889 12.7778ZM1.13889 7.66667H4.97222C5.32617 7.66667 5.61111 7.95161 5.61111 8.30556C5.61111 8.6595 5.32617 8.94444 4.97222 8.94444H1.13889C0.784944 8.94444 0.5 8.6595 0.5 8.30556C0.5 7.95161 0.784944 7.66667 1.13889 7.66667ZM1.13889 2.55556H4.97222C5.32617 2.55556 5.61111 2.8405 5.61111 3.19444C5.61111 3.54839 5.32617 3.83333 4.97222 3.83333H1.13889C0.784944 3.83333 0.5 3.54839 0.5 3.19444C0.5 2.8405 0.784944 2.55556 1.13889 2.55556ZM31.8056 16.6111C30.0486 16.6111 28.6111 18.0486 28.6111 19.8056C28.6111 21.5625 30.0486 23 31.8056 23C33.5625 23 35 21.5625 35 19.8056C35 18.0486 33.5625 16.6111 31.8056 16.6111ZM31.8056 17.8889C32.8712 17.8889 33.7222 18.7399 33.7222 19.8056C33.7222 20.8712 32.8712 21.7222 31.8056 21.7222C30.7399 21.7222 29.8889 20.8712 29.8889 19.8056C29.8889 18.7399 30.7399 17.8889 31.8056 17.8889ZM15.1944 16.6111C13.4375 16.6111 12 18.0486 12 19.8056C12 21.5625 13.4375 23 15.1944 23C16.9514 23 18.3889 21.5625 18.3889 19.8056C18.3889 18.0486 16.9514 16.6111 15.1944 16.6111ZM15.1944 17.8889C16.2601 17.8889 17.1111 18.7399 17.1111 19.8056C17.1111 20.8712 16.2601 21.7222 15.1944 21.7222C14.1288 21.7222 13.2778 20.8712 13.2778 19.8056C13.2778 18.7399 14.1288 17.8889 15.1944 17.8889ZM8.80556 0C7.75522 0 6.88889 0.866333 6.88889 1.91667V15.9722C6.88889 17.0226 7.75522 17.8889 8.80556 17.8889H11.3611C12.2249 17.9017 12.2249 16.5983 11.3611 16.6111H8.80556C8.44011 16.6111 8.16667 16.3377 8.16667 15.9722V1.91667C8.16667 1.55122 8.44011 1.27778 8.80556 1.27778H25.4167C25.7821 1.27778 26.0556 1.55122 26.0556 1.91667V16.6111H19.0278C18.1844 16.6111 18.1998 17.9017 19.0278 17.8889H27.9722C28.8156 17.8889 28.8079 16.6111 27.9722 16.6111H27.3333V5.11111H32.7345L37.5556 12.6449V15.9722C37.5556 16.3377 37.2821 16.6111 36.9167 16.6111H35.6389C34.8032 16.6111 34.8032 17.8889 35.6389 17.8889H36.9167C37.967 17.8889 38.8333 17.0226 38.8333 15.9722V12.4583C38.8333 12.3369 38.7988 12.2156 38.7337 12.1133L33.6226 4.12722C33.505 3.9445 33.3031 3.83333 33.0833 3.83333H27.3333V1.91667C27.3333 0.866333 26.467 0 25.4167 0H8.80556Z" fill="black"/>
<path d="M20.0574 7.19422C20.1749 7.07411 20.3347 7.00511 20.5008 7H20.502C21.0822 7 21.3927 7.69639 20.971 8.10528L17.144 11.922C16.891 12.1737 16.4822 12.1737 16.2304 11.922L13.6966 9.39456C13.0897 8.81444 14.0288 7.87911 14.6102 8.48478L16.6866 10.5548L20.0574 7.19422Z" fill="#FF0000"/>
</svg>
