<svg width="44" height="44" viewBox="0 0 44 44" fill="none" xmlns="http://www.w3.org/2000/svg">
<path d="M3.09387 12.4053L0.755744 10.0076C-0.0665604 9.16434 -0.227107 7.81047 0.509182 6.89125C1.34649 5.8457 2.85551 5.78934 3.76512 6.72227C4.67485 5.78945 6.18387 5.84582 7.02117 6.89125C7.75735 7.81059 7.59692 9.16434 6.77461 10.0076L4.43637 12.4053C4.0684 12.7826 3.46184 12.7826 3.09387 12.4053ZM43.1172 19.1874V39.8124C43.1172 41.8834 41.4382 43.5624 39.3672 43.5624H31.8598C30.8242 43.5624 29.9848 42.723 29.9848 41.6874V19.1874H23.4223V41.6874C23.4223 42.723 22.5829 43.5624 21.5473 43.5624H14.0547C11.9841 43.5624 10.3047 41.8846 10.3047 39.814C10.3047 38.0089 10.2976 36.115 10.2957 34.7794L7.67028 41.8093C7.31403 42.7749 6.22653 43.2718 5.2609 42.9061L3.50778 42.2499C1.56715 41.528 0.582775 39.3624 1.30465 37.4218C5.46094 26.3024 4.7209 28.2841 5.57028 26.003L10.839 27.9718L13.1172 21.8813V21.8241L7.86715 19.8624C8.71805 17.5769 7.9684 19.5845 12.1328 8.44363C12.864 6.50301 15.0203 5.51863 16.9609 6.24051L18.714 6.89676C19.6884 7.26156 20.1827 8.34707 19.818 9.32149L19.581 9.95512C20.9816 9.6134 22.3695 9.93285 23.4297 10.6729C25.4809 9.24192 28.356 9.61563 29.9592 11.7024C31.2103 13.3308 31.2271 15.5841 30.1223 17.3123H41.2422C42.2734 17.3124 43.1172 18.1561 43.1172 19.1874ZM18.5734 12.6479L17.8121 14.6822C17.8328 15.4584 18.1383 16.2398 18.7339 16.8413L19.1999 17.3124C20.1752 17.3124 26.5964 17.3124 27.66 17.3124L28.1255 16.8418C29.2222 15.7335 29.3715 14.0151 28.4725 12.8451C27.3436 11.3754 25.296 11.3412 24.0962 12.553C23.7446 12.9092 23.1148 12.9092 22.7632 12.553C21.6574 11.4353 19.7777 11.3349 18.5734 12.6479ZM39.3672 30.4374C39.3672 29.9218 38.9453 29.4999 38.4297 29.4999C37.914 29.4999 37.4922 29.9218 37.4922 30.4374V36.5405C37.4922 37.0655 37.914 37.478 38.4297 37.478C38.9453 37.478 39.3672 37.0655 39.3672 36.5405V30.4374ZM39.3672 21.9436C39.3672 21.428 38.9453 21.0061 38.4297 21.0061C37.914 21.0061 37.4922 21.428 37.4922 21.9436V25.7499C37.4922 26.2655 37.914 26.6874 38.4297 26.6874C38.9453 26.6874 39.3672 26.2655 39.3672 25.7499V21.9436ZM35.0006 11.0411C35.8582 11.908 37.2511 11.908 38.1087 11.0411L41.9173 7.1909C43.3059 5.78711 43.545 3.53125 42.3408 1.96375C40.886 0.0697664 38.1773 -0.0569135 36.5547 1.58348C34.932 -0.0569135 32.2233 0.0697664 30.7685 1.96375C29.5644 3.53125 29.8035 5.78711 31.192 7.1909L35.0006 11.0411Z" fill="#FA585A"/>
</svg>
