<svg width="40" height="41" viewBox="0 0 40 41" fill="none" xmlns="http://www.w3.org/2000/svg">
<path d="M0.5 14.0859C0.5 14.0977 0.5 14.0977 0.5 14.0859C0.523437 16.3594 1.8125 18.3281 3.71094 19.3008V39.6914C3.71094 40.1719 4.10937 40.5703 4.58984 40.5703H23.5859H30.6641H35.6914C36.1719 40.5703 36.5703 40.1719 36.5703 39.6914V19.3008C38.457 18.3164 39.7578 16.3477 39.7812 14.0859C39.7812 14.0742 39.7812 14.0508 39.7812 14.0391V14.0273C39.7812 14.0039 39.7812 13.9922 39.7812 13.9687C39.7812 13.957 39.7812 13.9453 39.7812 13.9336C39.7812 13.9219 39.7812 13.8984 39.7695 13.8867C39.7695 13.875 39.7695 13.8633 39.7578 13.8398C39.7578 13.8281 39.7461 13.8164 39.7461 13.8047C39.7461 13.793 39.7344 13.7695 39.7344 13.7578C39.7344 13.7461 39.7227 13.7344 39.7227 13.7227C39.7109 13.6992 39.7109 13.6875 39.6992 13.6758V13.6641L35.9609 5.74219V2.73047C35.9609 1.23047 34.7422 0 33.2305 0H7.01562C5.51562 0 4.28516 1.21875 4.28516 2.73047V5.8125L0.582031 13.6641V13.6758C0.570312 13.6875 0.570312 13.7109 0.558594 13.7227C0.558594 13.7344 0.546875 13.7461 0.546875 13.7578C0.546875 13.7695 0.535156 13.793 0.535156 13.8047C0.535156 13.8164 0.523437 13.8281 0.523437 13.8398C0.523437 13.8516 0.523437 13.8633 0.511719 13.8867C0.511719 13.8984 0.511719 13.9219 0.5 13.9336C0.5 13.9453 0.5 13.957 0.5 13.9687C0.5 13.9922 0.5 14.0039 0.5 14.0273V14.0391C0.5 14.0625 0.5 14.0742 0.5 14.0859ZM5.76172 6.82031H12.2656L10.8008 13.1602H2.76172L5.76172 6.82031ZM26.2109 6.82031L27.6758 13.1602H21.0195V6.82031H26.2109ZM37.5078 13.1602H29.4687L28.0156 6.82031H34.5195L37.5078 13.1602ZM28.3437 16.0898C27.6055 17.3906 26.2109 18.2227 24.6992 18.2227C23.1523 18.2227 21.7344 17.3555 21.0078 15.9961V14.9297H28.0625L28.3437 16.0898ZM12.207 14.918H19.2617V15.9844C18.5469 17.3437 17.1172 18.2109 15.5703 18.2109C14.0586 18.2109 12.6641 17.3789 11.9258 16.0781L12.207 14.918ZM19.2617 13.1602H12.6055L14.0703 6.82031H19.2617V13.1602ZM2.35156 14.918H10.3906L10.168 15.9023C9.46484 17.3086 8.01172 18.2227 6.42969 18.2227C4.4375 18.2227 2.76172 16.8047 2.35156 14.918ZM24.4648 38.8242V30.2813C24.4648 30.1758 24.5469 30.0937 24.6523 30.0937H29.6094C29.7148 30.0937 29.7969 30.1758 29.7969 30.2813V38.8242H24.4648ZM34.8125 38.8242H31.543V30.2813C31.543 29.2148 30.6758 28.3359 29.5977 28.3359H24.6406C23.5742 28.3359 22.6953 29.2031 22.6953 30.2813V38.8242H5.46875V19.8984C5.78516 19.9453 6.10156 19.9805 6.44141 19.9805C8.22266 19.9805 9.89844 19.1719 11.0117 17.8242C12.125 19.1602 13.8008 19.9805 15.582 19.9805C17.3633 19.9805 19.0391 19.1719 20.1523 17.8242C21.2656 19.1602 22.9414 19.9805 24.7227 19.9805C26.5039 19.9805 28.1797 19.1719 29.293 17.8242C30.4062 19.1602 32.082 19.9805 33.8633 19.9805C34.1914 19.9805 34.5195 19.957 34.8359 19.8984V38.8242H34.8125ZM33.8398 18.2227C32.2578 18.2227 30.8047 17.3203 30.1016 15.9023L29.8789 14.918H37.918C37.5195 16.8047 35.8437 18.2227 33.8398 18.2227ZM6.05469 2.74219C6.05469 2.21484 6.48828 1.76953 7.02734 1.76953H33.2422C33.7695 1.76953 34.2148 2.20312 34.2148 2.74219V5.0625H6.05469V2.74219Z" fill="#2FDADF"/>
<path d="M18.0078 22.2422H8.48047C8 22.2422 7.60156 22.6406 7.60156 23.1211V30.7383C7.60156 31.2187 8 31.6172 8.48047 31.6172H18.0078C18.4883 31.6172 18.8867 31.2187 18.8867 30.7383V23.1211C18.8867 22.6289 18.4883 22.2422 18.0078 22.2422ZM17.1289 26.0508H14.1172V24H17.1289V26.0508ZM12.3594 24V26.0508H9.35938V24H12.3594ZM9.35938 27.8086H12.3711V29.8594H9.35938V27.8086ZM14.1172 29.8594V27.8086H17.1289V29.8594H14.1172Z" fill="#2FDADF"/>
</svg>
