<svg width="574" height="686" viewBox="0 0 574 686" fill="none" xmlns="http://www.w3.org/2000/svg">
<g clip-path="url(#clip0_4079_22708)">
<path d="M353.28 686C474.904 686 573.499 647.414 573.499 599.816C573.499 552.218 474.904 513.633 353.28 513.633C231.656 513.633 133.061 552.218 133.061 599.816C133.061 647.414 231.656 686 353.28 686Z" fill="#FEA4D5"/>
<path d="M339.877 639.273C437.447 639.273 516.544 608.051 516.544 569.535C516.544 531.02 437.447 499.797 339.877 499.797C242.307 499.797 163.211 531.02 163.211 569.535C163.211 608.051 242.307 639.273 339.877 639.273Z" fill="#BC719A"/>
<path d="M318.835 69.9219H331.472C377.562 69.9219 421.765 88.237 454.355 120.838C486.946 153.439 505.255 197.656 505.255 243.761V489.211C505.255 522.841 491.9 555.095 468.127 578.875C444.354 602.656 412.111 616.016 378.491 616.016H271.786C238.166 616.016 205.923 602.656 182.15 578.875C158.377 555.095 145.021 522.841 145.021 489.211V243.761C145.021 197.656 163.331 153.439 195.921 120.838C228.512 88.237 272.715 69.9219 318.805 69.9219H318.835Z" fill="#26BBBF"/>
<path d="M54.5104 606.045L40.9844 595.644C72.6678 554.47 85.9177 497.464 80.3969 425.762C78.2192 397.444 73.5266 368.695 69.0179 340.929C63.8344 309.113 58.4977 276.192 56.7494 243.301C52.6394 168.501 70.4594 106.402 108.032 63.786C140.513 26.9379 190.231 3.2214 241.114 0.306689C271.897 -1.94218 302.697 4.43237 330.061 18.7154C358.493 34.2401 379.135 59.0611 387.017 86.7969L370.608 91.3991C364.044 68.0507 346.286 47.0341 321.872 33.7185C299.574 21.4767 271.203 15.7086 242.065 17.3654C195.69 20.0347 150.358 41.6035 120.852 75.0767C77.1764 124.627 71.0422 193.291 73.7719 242.381C75.4895 274.351 80.765 306.811 85.8564 338.137C90.4571 366.272 95.0578 395.388 97.4194 424.412C103.278 500.348 88.8315 561.465 54.5104 606.045Z" fill="#93E4E6"/>
<path d="M33.7468 588.188L9.66992 580.549" stroke="#26BBBF" stroke-width="2" stroke-linecap="round" stroke-linejoin="round"/>
<path d="M29.4836 600.828L3.56641 608.314" stroke="#26BBBF" stroke-width="2" stroke-linecap="round" stroke-linejoin="round"/>
<path d="M38.3175 610.738L30.0977 632.706" stroke="#26BBBF" stroke-width="2" stroke-linecap="round" stroke-linejoin="round"/>
<path d="M54.4805 616.844L64.2339 637.277" stroke="#26BBBF" stroke-width="2" stroke-linecap="round" stroke-linejoin="round"/>
<path d="M66.6562 604.572L92.8802 608.009" stroke="#26BBBF" stroke-width="2" stroke-linecap="round" stroke-linejoin="round"/>
<path d="M226.761 515.964V247.32C226.893 205.957 241.552 165.956 268.177 134.309C294.802 102.661 331.699 81.3806 372.418 74.186C366.065 73.4509 359.675 73.0719 353.279 73.0508C308.439 73.1805 265.474 91.067 233.782 122.799C202.089 154.53 184.247 197.525 184.158 242.38V500.992C184.276 529.357 194.124 556.823 212.056 578.798C229.987 600.773 254.916 615.925 282.674 621.722C265.467 609.963 251.383 594.188 241.641 575.761C231.899 557.334 226.791 536.809 226.761 515.964Z" fill="#93E4E6"/>
<path d="M417.016 85.6621C453.759 122.52 474.405 172.441 474.432 224.494V526.244C474.424 559 463.187 590.762 442.595 616.231C465.994 607.321 486.141 591.522 500.378 570.921C514.615 550.32 522.273 525.884 522.341 500.84V242.381C522.275 208.761 512.23 175.917 493.479 148.016C474.727 120.115 448.114 98.4125 417.016 85.6621Z" fill="white"/>
<path d="M474.432 224.494C474.405 172.442 453.759 122.521 417.015 85.6623C402.751 79.7962 387.743 75.9346 372.419 74.1875C331.7 81.3821 294.803 102.663 268.178 134.31C241.553 165.958 226.894 205.958 226.762 247.321V515.965C226.792 536.811 231.9 557.335 241.642 575.762C251.385 594.19 265.468 609.965 282.675 621.723C290.829 623.404 299.133 624.248 307.458 624.239H398.981C413.865 624.244 428.624 621.53 442.534 616.232C463.125 590.762 474.363 559 474.371 526.244L474.432 224.494Z" fill="#E0F2F2"/>
<path d="M330.461 333.074C330.461 334.7 329.979 336.29 329.076 337.642C328.173 338.995 326.889 340.048 325.387 340.671C323.885 341.293 322.232 341.456 320.638 341.139C319.043 340.821 317.579 340.038 316.429 338.888C315.279 337.738 314.497 336.273 314.179 334.678C313.862 333.083 314.025 331.43 314.647 329.927C315.269 328.425 316.323 327.141 317.675 326.237C319.026 325.334 320.616 324.852 322.241 324.852C324.421 324.852 326.512 325.718 328.054 327.26C329.595 328.802 330.461 330.893 330.461 333.074Z" fill="#14141F"/>
<path d="M459.618 333.074C459.618 334.7 459.135 336.29 458.232 337.642C457.329 338.995 456.045 340.048 454.543 340.671C453.041 341.293 451.388 341.456 449.794 341.139C448.199 340.821 446.735 340.038 445.585 338.888C444.436 337.738 443.653 336.273 443.336 334.678C443.019 333.083 443.181 331.43 443.803 329.927C444.426 328.425 445.479 327.141 446.831 326.237C448.183 325.334 449.772 324.852 451.398 324.852C453.578 324.852 455.668 325.718 457.21 327.26C458.751 328.802 459.618 330.893 459.618 333.074Z" fill="#14141F"/>
<path d="M324.939 380.661C331.918 371.16 341.152 363.547 351.807 358.509C362.609 353.301 374.445 350.596 386.435 350.596C398.426 350.596 410.262 353.301 421.063 358.509C431.722 363.529 440.95 371.146 447.9 380.661C438.832 374.108 428.876 368.88 418.333 365.136C397.661 358.03 375.209 358.03 354.537 365.136C343.982 368.873 334.015 374.101 324.939 380.661Z" fill="#14141F"/>
<path d="M468.512 319.482C467.618 320.354 466.556 321.035 465.391 321.483C464.226 321.932 462.982 322.138 461.734 322.09C459.186 322.054 456.712 321.225 454.657 319.719C452.601 318.212 451.065 316.103 450.263 313.684C449.841 312.504 449.664 311.251 449.743 310C449.822 308.75 450.156 307.529 450.723 306.412C452.625 308.192 454.005 309.48 455.354 310.585C456.704 311.689 457.931 312.64 459.157 313.653C460.384 314.665 461.673 315.463 463.145 316.383C464.617 317.304 466.273 318.224 468.512 319.482Z" fill="#14141F"/>
<path d="M302.611 324.086C304.85 322.859 306.507 321.907 307.979 321.018C309.451 320.128 310.709 319.177 311.966 318.256C313.224 317.336 314.42 316.385 315.769 315.188C317.119 313.992 318.53 312.764 320.401 311.016C320.968 312.133 321.301 313.354 321.381 314.604C321.46 315.854 321.283 317.107 320.861 318.287C320.082 320.752 318.534 322.903 316.444 324.423C314.401 325.944 311.936 326.791 309.39 326.847C308.131 326.875 306.88 326.645 305.714 326.17C304.548 325.695 303.492 324.985 302.611 324.086Z" fill="#14141F"/>
<path d="M202.929 431.438C202.929 431.438 117.049 492.34 390.023 481.693" stroke="#26BBBF" stroke-width="1.89" stroke-miterlimit="10" stroke-linecap="round"/>
<path d="M522.4 427.787C522.4 427.787 601.655 480.375 410.205 480.375" stroke="#26BBBF" stroke-width="2" stroke-miterlimit="10" stroke-linecap="round"/>
<path d="M323.131 625.374C323.131 625.374 354.385 206.361 375.057 642.831" stroke="#26BBBF" stroke-width="2" stroke-miterlimit="10" stroke-linecap="round"/>
<path d="M404.777 625.252C404.777 625.252 436.031 207.773 456.673 644.305" stroke="#26BBBF" stroke-width="2" stroke-miterlimit="10" stroke-linecap="round"/>
<path d="M426.462 480.375C426.462 485.867 420.021 490.316 412.046 490.316C404.072 490.316 397.631 485.867 397.631 480.375C397.631 474.883 404.102 470.465 412.046 470.465C419.99 470.465 426.462 474.914 426.462 480.375Z" fill="#14141F"/>
<path d="M383.214 491.879C391.176 491.879 397.63 487.429 397.63 481.939C397.63 476.449 391.176 471.998 383.214 471.998C375.253 471.998 368.799 476.449 368.799 481.939C368.799 487.429 375.253 491.879 383.214 491.879Z" fill="#14141F"/>
<path d="M407.783 661.73C405.606 666.762 394.411 666.762 382.786 661.73C371.162 656.699 363.556 648.507 365.733 643.475C367.911 638.443 379.106 638.443 390.73 643.475C402.355 648.507 409.961 656.576 407.783 661.73Z" fill="#14141F"/>
<path d="M488.448 658.662C486.24 663.694 475.075 663.663 463.451 658.662C451.827 653.661 444.189 645.408 446.398 640.407C448.606 635.406 459.77 635.375 471.364 640.407C482.958 645.439 490.626 653.508 488.448 658.662Z" fill="#14141F"/>
<path d="M184.158 278.555C211.308 269.104 239.219 262 267.584 257.323C281.754 254.808 296.016 252.997 310.278 251.586C324.54 250.175 339.017 249.408 353.402 248.948C382.262 248.177 411.133 250.056 439.65 254.562C453.947 256.838 468.1 259.942 482.037 263.859C495.861 267.838 509.389 272.779 522.523 278.647C508.721 274.72 494.919 270.977 480.964 268.277C477.498 267.479 473.971 266.957 470.474 266.282C466.978 265.607 463.481 264.963 459.954 264.534L449.434 262.938L438.852 261.65C424.713 260.177 410.573 258.827 396.403 258.581C382.233 258.336 368.002 257.784 353.801 258.244C325.36 258.916 296.972 261.046 268.749 264.626C240.348 267.97 212.13 272.541 184.158 278.555Z" fill="#26BBBF"/>
<path d="M378.951 253.243V77.7773" stroke="#26BBBF" stroke-width="2" stroke-miterlimit="10" stroke-linecap="round"/>
<path d="M375.485 218.695C371 218.679 366.703 216.89 363.531 213.717C360.36 210.544 358.571 206.246 358.555 201.759V120.7C358.571 116.213 360.36 111.915 363.531 108.742C366.703 105.569 371 103.78 375.485 103.764C379.971 103.78 384.267 105.569 387.439 108.742C390.611 111.915 392.4 116.213 392.416 120.7V201.759C392.408 206.249 390.621 210.552 387.448 213.726C384.275 216.9 379.973 218.687 375.485 218.695Z" fill="#26BBBF"/>
<path d="M379.35 104.316V218.236C383.06 217.354 386.366 215.25 388.736 212.262C391.106 209.273 392.402 205.574 392.416 201.76V120.7C392.381 116.901 391.076 113.224 388.707 110.254C386.339 107.284 383.045 105.194 379.35 104.316Z" fill="#26BBBF"/>
<path d="M375.485 218.695C371 218.679 366.703 216.89 363.531 213.717C360.36 210.544 358.571 206.246 358.555 201.759V120.7C358.571 116.213 360.36 111.915 363.531 108.742C366.703 105.569 371 103.78 375.485 103.764C379.971 103.78 384.267 105.569 387.439 108.742C390.611 111.915 392.4 116.213 392.416 120.7V201.759C392.408 206.249 390.621 210.552 387.448 213.726C384.275 216.9 379.973 218.687 375.485 218.695Z" fill="#26BBBF"/>
<path d="M382.018 215.902C377.531 215.894 373.229 214.107 370.056 210.933C366.882 207.759 365.096 203.456 365.088 198.966V117.907C365.104 113.42 366.893 109.122 370.065 105.949C373.236 102.776 377.533 100.987 382.018 100.971C386.504 100.987 390.801 102.776 393.972 105.949C397.144 109.122 398.933 113.42 398.949 117.907V198.966C398.941 203.456 397.154 207.759 393.981 210.933C390.808 214.107 386.506 215.894 382.018 215.902Z" fill="#93E4E6"/>
<path d="M385.883 101.432V215.443C389.593 214.562 392.899 212.457 395.269 209.469C397.639 206.481 398.935 202.782 398.949 198.967V117.907C398.93 114.094 397.631 110.398 395.262 107.411C392.893 104.423 389.59 102.318 385.883 101.432Z" fill="white"/>
<path d="M463.635 63.2949V179.116" stroke="#26BBBF" stroke-width="2" stroke-miterlimit="10" stroke-linecap="round"/>
<path d="M442.043 72.377V138.863" stroke="#26BBBF" stroke-width="2" stroke-miterlimit="10" stroke-linecap="round"/>
<path d="M485.227 98.5469V171.783" stroke="#26BBBF" stroke-width="2" stroke-miterlimit="10" stroke-linecap="round"/>
</g>
<defs>
<clipPath id="clip0_4079_22708">
<rect width="573" height="686" fill="white" transform="translate(0.5)"/>
</clipPath>
</defs>
</svg>
