<svg width="19" height="23" viewBox="0 0 19 23" fill="none" xmlns="http://www.w3.org/2000/svg">
<path d="M8.16881 22.536C1.35797 13.0737 0.09375 12.1025 0.09375 8.625C0.09375 3.86153 4.12317 0 9.09375 0C14.0643 0 18.0938 3.86153 18.0938 8.625C18.0938 12.1025 16.8295 13.0737 10.0187 22.536C9.57173 23.1547 8.61572 23.1547 8.16881 22.536ZM9.09375 12.2187C11.1648 12.2187 12.8438 10.6098 12.8438 8.625C12.8438 6.64022 11.1648 5.03125 9.09375 5.03125C7.02267 5.03125 5.34375 6.64022 5.34375 8.625C5.34375 10.6098 7.02267 12.2187 9.09375 12.2187Z" fill="#2FDADF"/>
</svg>
