<svg width="21" height="15" viewBox="0 0 21 15" fill="none" xmlns="http://www.w3.org/2000/svg">
<path d="M19.7148 4.95313C19.8672 4.83203 20.0938 4.94531 20.0938 5.13672V13.125C20.0938 14.1602 19.2539 15 18.2188 15H1.96875C0.933594 15 0.09375 14.1602 0.09375 13.125V5.14063C0.09375 4.94531 0.316406 4.83594 0.472656 4.95703C1.34766 5.63672 2.50781 6.5 6.49219 9.39453C7.31641 9.99609 8.70703 11.2617 10.0938 11.2539C11.4883 11.2656 12.9062 9.97266 13.6992 9.39453C17.6836 6.5 18.8398 5.63281 19.7148 4.95313ZM10.0938 10C11 10.0156 12.3047 8.85938 12.9609 8.38281C18.1445 4.62109 18.5391 4.29297 19.7344 3.35547C19.9609 3.17969 20.0938 2.90625 20.0938 2.61719V1.875C20.0938 0.839844 19.2539 0 18.2188 0H1.96875C0.933594 0 0.09375 0.839844 0.09375 1.875V2.61719C0.09375 2.90625 0.226562 3.17578 0.453125 3.35547C1.64844 4.28906 2.04297 4.62109 7.22656 8.38281C7.88281 8.85938 9.1875 10.0156 10.0938 10Z" fill="#2FDADF"/>
</svg>
