<svg width="73" height="18" viewBox="0 0 73 18" fill="none" xmlns="http://www.w3.org/2000/svg">
<path d="M56.1932 5H52.5409C52.3261 5 52.1113 5.21053 52.0039 5.42105L50.5 14.6842C50.5 14.8947 50.6074 15 50.8223 15H52.7558C52.9706 15 53.078 14.8947 53.078 14.6842L53.5077 12.0526C53.5077 11.8421 53.7225 11.6316 54.0448 11.6316H55.2264C57.697 11.6316 59.0935 10.4737 59.4157 8.15789C59.6306 7.21053 59.4157 6.36842 58.986 5.84211C58.3415 5.31579 57.3748 5 56.1932 5ZM56.6228 8.47368C56.408 9.73684 55.4412 9.73684 54.4745 9.73684H53.83L54.2596 7.31579C54.2596 7.21053 54.3671 7.10526 54.5819 7.10526H54.7967C55.4412 7.10526 56.0858 7.10526 56.408 7.52631C56.6228 7.63158 56.6228 7.94737 56.6228 8.47368Z" fill="#139AD6"/>
<path d="M28.1567 4.59961H24.271C24.0425 4.59961 23.8139 4.82818 23.6996 5.05675L22.0996 15.1139C22.0996 15.3424 22.2139 15.4567 22.4425 15.4567H24.271C24.4996 15.4567 24.7282 15.2282 24.8425 14.9996L25.2996 12.2567C25.2996 12.0282 25.5282 11.7996 25.871 11.7996H27.1282C29.7567 11.7996 31.2424 10.5424 31.5853 8.02817C31.8139 6.9996 31.5853 6.08532 31.1282 5.51389C30.4424 4.94247 29.5282 4.59961 28.1567 4.59961ZM28.6139 8.37103C28.3853 9.74245 27.3567 9.74245 26.3282 9.74245H25.7567L26.2139 7.11389C26.2139 6.9996 26.3282 6.88532 26.5567 6.88532H26.7853C27.471 6.88532 28.1567 6.88532 28.4996 7.34246C28.6139 7.45674 28.7282 7.7996 28.6139 8.37103Z" fill="#263B80"/>
<path d="M39.9282 8.25592H38.0996C37.9854 8.25592 37.7568 8.3702 37.7568 8.48448L37.6425 9.05591L37.5282 8.82734C37.0711 8.25592 36.2711 8.02734 35.3568 8.02734C33.2997 8.02734 31.4711 9.62734 31.1282 11.7988C30.8997 12.9416 31.2425 13.9702 31.8139 14.6559C32.3854 15.3416 33.1854 15.5702 34.2139 15.5702C35.9282 15.5702 36.8425 14.5416 36.8425 14.5416L36.7282 15.113C36.7282 15.3416 36.8425 15.4559 37.0711 15.4559H38.7854C39.0139 15.4559 39.2425 15.2273 39.3568 14.9988L40.3854 8.59877C40.2711 8.48449 40.0425 8.25592 39.9282 8.25592ZM37.2996 11.913C37.0711 12.9416 36.2711 13.7416 35.1282 13.7416C34.5568 13.7416 34.0997 13.513 33.8711 13.2845C33.6425 12.9416 33.5282 12.4845 33.5282 11.913C33.6425 10.8845 34.5568 10.0845 35.5854 10.0845C36.1568 10.0845 36.4996 10.3131 36.8425 10.5416C37.1854 10.8845 37.2996 11.4559 37.2996 11.913Z" fill="#263B80"/>
<path d="M68.01 8.24243H66.0498C65.9273 8.24243 65.6823 8.36364 65.6823 8.48485L65.5598 9.09091L65.4373 8.84849C64.9472 8.24243 64.0897 8 63.1096 8C60.9044 8 58.9443 9.69697 58.5767 12C58.3317 13.2121 58.6993 14.303 59.3118 15.0303C59.9243 15.7576 60.7819 16 61.8845 16C63.7221 16 64.7022 14.9091 64.7022 14.9091L64.5797 15.5151C64.5797 15.7576 64.7022 15.8788 64.9472 15.8788H66.7849C67.0299 15.8788 67.2749 15.6364 67.3974 15.3939L68.5 8.60606C68.3775 8.48485 68.255 8.24243 68.01 8.24243ZM65.1922 12.1212C64.9472 13.2121 64.0897 14.0606 62.8646 14.0606C62.252 14.0606 61.762 13.8182 61.517 13.5758C61.2719 13.2121 61.1494 12.7273 61.1494 12.1212C61.272 11.0303 62.252 10.1818 63.3546 10.1818C63.9672 10.1818 64.3347 10.4242 64.7022 10.6667C65.1922 11.0303 65.3148 11.6364 65.1922 12.1212Z" fill="#139AD6"/>
<path d="M50.2137 8H48.2899C48.0636 8 47.9504 8.11494 47.8372 8.22988L45.3476 12.1379L44.216 8.45977C44.1028 8.22988 43.9896 8.11494 43.6501 8.11494H41.8395C41.6132 8.11494 41.5 8.34483 41.5 8.57471L43.537 14.6667L41.6132 17.4253C41.5 17.6552 41.6132 18 41.8395 18H43.6501C43.8765 18 43.9896 17.8851 44.1028 17.7701L50.3269 8.68966C50.6664 8.34483 50.44 8 50.2137 8Z" fill="#263B80"/>
<path d="M70.0556 5.27587L68.5 15.6541C68.5 15.8847 68.6111 16 68.8333 16H70.3889C70.6111 16 70.8333 15.7694 70.9444 15.5387L72.5 5.39118C72.5 5.16055 72.3889 5.04524 72.1667 5.04524H70.3889C70.2778 4.92992 70.1667 5.04524 70.0556 5.27587Z" fill="#139AD6"/>
<path d="M13.5638 1.35211C12.7686 0.450703 11.2918 0 9.24706 0H3.56715C3.22636 0 2.88556 0.338026 2.77196 0.676055L0.5 15.4366C0.5 15.7746 0.727196 16 0.954393 16H4.47594L5.38472 10.4789V10.7042C5.49832 10.3662 5.83911 10.0282 6.17991 10.0282H7.88388C11.1782 10.0282 13.6774 8.67605 14.4726 4.95775C14.4726 4.84507 14.4726 4.73239 14.4726 4.61972C14.359 4.61972 14.359 4.61972 14.4726 4.61972C14.5862 3.15493 14.359 2.25352 13.5638 1.35211Z" fill="#263B80"/>
<path d="M14.212 4C14.212 4.11765 14.212 4.2353 14.212 4.35294C13.4566 8.35294 11.0826 9.64706 7.95314 9.64706H6.33448C6.01075 9.64706 5.68702 10 5.57911 10.3529L4.5 17.5294C4.5 17.7647 4.60791 18 4.93164 18H7.73732C8.06105 18 8.38479 17.7647 8.38479 17.4118V17.2941L8.92434 13.6471V13.4118C8.92434 13.0588 9.24807 12.8235 9.57181 12.8235H10.0034C12.7012 12.8235 14.8594 11.6471 15.399 8.11765C15.6148 6.70588 15.5069 5.41176 14.8594 4.58824C14.7515 4.35294 14.5357 4.11765 14.212 4Z" fill="#139AD6"/>
<path d="M13.5 4.35C13.3889 4.35 13.2778 4.23333 13.1667 4.23333C13.0556 4.23333 12.9444 4.23333 12.8333 4.11666C12.3889 4 11.9444 4 11.3889 4H7.05556C6.94444 4 6.83333 4 6.72222 4.11666C6.5 4.23333 6.38889 4.46666 6.38889 4.7L5.5 10.7667V11C5.61111 10.65 5.94444 10.3 6.27778 10.3H7.94444C11.1667 10.3 13.6111 8.9 14.3889 5.05C14.3889 4.93333 14.3889 4.81666 14.5 4.7C14.2778 4.58333 14.1667 4.46667 13.9444 4.46667C13.6111 4.35 13.6111 4.35 13.5 4.35Z" fill="#232C65"/>
</svg>
