<svg width="20" height="19" viewBox="0 0 20 19" fill="none" xmlns="http://www.w3.org/2000/svg">
<path d="M15.1207 19C14.9366 18.9994 14.7532 18.9787 14.5734 18.9381C11.1514 18.2107 7.99872 16.505 5.47836 14.0176C3.01179 11.5246 1.30109 8.35056 0.553238 4.87942C0.465057 4.44681 0.4867 3.99816 0.616085 3.57664C0.74547 3.15512 0.978242 2.7749 1.29201 2.47258L3.48095 0.307539C3.59275 0.198886 3.7256 0.115682 3.87081 0.0633574C4.01602 0.0110325 4.17034 -0.00923727 4.32369 0.003871C4.4827 0.0209174 4.63614 0.0735533 4.77323 0.158077C4.91032 0.242601 5.02772 0.35696 5.11719 0.493113L7.85337 4.64886C7.95597 4.81011 8.0055 5.00094 7.99467 5.19329C7.98383 5.38563 7.9132 5.56931 7.79317 5.71732L6.41961 7.40436C6.96665 8.64853 7.74137 9.77301 8.70158 10.7166C9.65558 11.6944 10.7832 12.4752 12.0233 13.0166L13.7252 11.6276C13.8681 11.5115 14.0421 11.4429 14.2239 11.4308C14.4057 11.4188 14.5868 11.4639 14.7431 11.5601L18.8747 14.3044C19.0165 14.3914 19.1373 14.5102 19.228 14.652C19.3188 14.7937 19.3771 14.9548 19.3987 15.123C19.4203 15.2913 19.4045 15.4623 19.3526 15.6234C19.3008 15.7845 19.2141 15.9315 19.0991 16.0533L16.9648 18.2239C16.7224 18.4718 16.4347 18.668 16.1182 18.8012C15.8017 18.9344 15.4627 19.0019 15.1207 19V19ZM4.23614 1.11732L2.04719 3.28235C1.87068 3.45137 1.74002 3.66468 1.66806 3.90132C1.5961 4.13796 1.58531 4.38977 1.63676 4.63199C2.33215 7.88918 3.93062 10.8697 6.23902 13.2134C8.61085 15.5536 11.5776 17.1579 14.7978 17.8415C15.0415 17.8939 15.2941 17.8833 15.5329 17.8107C15.7716 17.738 15.9891 17.6056 16.1659 17.4254L18.3001 15.2547L14.3108 12.6061L12.483 14.1019C12.413 14.1588 12.3306 14.1973 12.2428 14.2139C12.1551 14.2306 12.0647 14.225 11.9795 14.1975C10.4619 13.6229 9.08654 12.7108 7.95187 11.5264C6.77824 10.4001 5.86724 9.01605 5.28683 7.47746C5.26227 7.38432 5.26146 7.28625 5.28446 7.19269C5.30746 7.09913 5.35351 7.01322 5.41817 6.94324L6.8957 5.12685L4.23614 1.11732Z" fill="#2FDADF"/>
</svg>
