<svg width="51" height="50" viewBox="0 0 51 50" fill="none" xmlns="http://www.w3.org/2000/svg">
<path d="M44.2497 31.25H48.4163V35.4167H44.2497V31.25ZM44.2497 22.9167H48.4163V27.0833H44.2497V22.9167ZM48.4163 39.5833H44.2497V43.75C46.333 43.75 48.4163 41.6667 48.4163 39.5833ZM27.583 6.25H31.7497V10.4167H27.583V6.25ZM44.2497 14.5833H48.4163V18.75H44.2497V14.5833ZM44.2497 6.25V10.4167H48.4163C48.4163 8.33333 46.333 6.25 44.2497 6.25ZM2.58301 14.5833H6.74967V18.75H2.58301V14.5833ZM35.9163 6.25H40.083V10.4167H35.9163V6.25ZM35.9163 39.5833H40.083V43.75H35.9163V39.5833ZM6.74967 6.25C4.66634 6.25 2.58301 8.33333 2.58301 10.4167H6.74967V6.25ZM19.2497 6.25H23.4163V10.4167H19.2497V6.25ZM10.9163 6.25H15.083V10.4167H10.9163V6.25ZM2.58301 22.9167V39.5833C2.58301 41.875 4.45801 43.75 6.74967 43.75H31.7497V22.9167H2.58301ZM6.74967 39.5833L11.958 32.8958L15.6872 37.375L20.8955 30.6667L27.583 39.5833H6.74967Z" fill="#2FDADF"/>
</svg>
