<svg width="42" height="50" viewBox="0 0 42 50" fill="none" xmlns="http://www.w3.org/2000/svg">
<path d="M32.7861 0H8.87813C4.2543 0 0.491211 3.76387 0.491211 8.38857V41.6132C0.491211 46.2379 4.2543 50 8.87813 50H28.9655H30.252L31.1621 49.0917L40.2665 39.9873L41.1748 39.0781V37.7916V8.38857C41.1748 3.76387 37.4117 0 32.7861 0ZM16.1413 17.0842C16.0021 16.1394 15.8114 14.2711 16.3058 13.3339C16.3058 13.3339 15.9674 12.7231 15.9674 11.9125C17.3879 12.1152 21.921 9.20605 23.2738 11.5749C25.2354 11.3714 26.4076 14.1387 25.5178 17.0842C25.5178 17.0842 26.617 17.0333 26.1776 18.5727C25.7654 20.0195 25.4347 20.3503 24.8563 20.5564C24.6086 21.9617 24.1914 23.2017 23.6418 23.8123C23.6418 24.5442 23.6418 25.0785 23.6418 25.506C23.6418 25.5492 23.6494 25.595 23.6621 25.6416L21.7387 26.567V27.9265H19.9279V26.567L18.0036 25.6408C18.0163 25.5941 18.0239 25.5492 18.0239 25.506C18.0239 25.0785 18.0239 24.5442 18.0239 23.8123C17.4743 23.2017 17.0588 21.9617 16.8104 20.5564C16.2311 20.3504 15.9012 20.0195 15.4881 18.5727C15.065 17.0943 16.0598 17.0842 16.1413 17.0842ZM20.8338 35.0166C14.3382 35.0166 9.87373 34.1736 9.8042 33.3619C9.52266 29.9779 13.9057 28.1724 15.69 27.5439C15.8656 27.4812 16.0692 27.3854 16.2787 27.2683L19.6863 31.9777L19.928 28.8924H21.7388L21.9813 31.9777L25.3882 27.2683C25.5926 27.3794 25.7919 27.4752 25.9769 27.5439C27.7485 28.2062 32.1442 29.9754 31.8618 33.3619C31.7938 34.1735 27.3286 35.0166 20.8338 35.0166ZM28.9654 46.8942V42.1932C28.9654 39.7625 30.9373 37.7915 33.3671 37.7915H38.069L28.9654 46.8942Z" fill="#2FDADF"/>
</svg>
