<svg width="52" height="46" viewBox="0 0 52 46" fill="none" xmlns="http://www.w3.org/2000/svg">
<path d="M26.167 37.4648C32.3802 37.4648 37.417 32.4281 37.417 26.2148C37.417 20.0016 32.3802 14.9648 26.167 14.9648C19.9538 14.9648 14.917 20.0016 14.917 26.2148C14.917 32.4281 19.9538 37.4648 26.167 37.4648ZM26.167 16.572C31.4923 16.572 35.8098 20.8896 35.8098 26.2148C35.8098 31.5401 31.4923 35.8577 26.167 35.8577C20.8417 35.8577 16.5241 31.5401 16.5241 26.2148C16.5241 20.8896 20.8417 16.572 26.167 16.572Z" fill="#2FDADF"/>
<path d="M48.6674 6.92857C48.6674 6.92857 43.0424 6.92857 42.2388 6.92857C41.4353 6.92857 40.9676 6.93179 39.9945 5.95866C39.0213 4.98554 35.5443 1.50848 35.5443 1.50848C35.3932 1.35741 34.4683 0.5 33.3996 0.5C32.3308 0.5 20.1029 0.5 18.9353 0.5C17.7677 0.5 16.9279 1.37107 16.7769 1.52134C16.7769 1.52134 13.3006 4.99759 12.3404 5.95786C11.3801 6.91812 10.914 6.92857 10.096 6.92857V4.51786C10.096 4.07348 9.73678 3.71429 9.29241 3.71429H4.47098C4.02661 3.71429 3.66741 4.07348 3.66741 4.51786V6.92857C1.89071 6.92857 0.453125 8.36616 0.453125 10.1429V42.2857C0.453125 44.0624 1.89071 45.5 3.66741 45.5H48.6674C50.4441 45.5 51.8817 44.0624 51.8817 42.2857V10.1429C51.8817 8.36616 50.4441 6.92857 48.6674 6.92857ZM5.27455 5.32143H8.48884V6.92857C7.49241 6.92857 6.2533 6.92857 5.27455 6.92857V5.32143ZM3.66741 8.53571C3.66741 8.53571 10.096 8.53571 10.8996 8.53571C11.7031 8.53571 12.5284 8.04312 13.0748 7.4967C13.6212 6.95027 17.3185 3.25304 17.8834 2.68812C18.4483 2.12321 19.3371 2.10714 19.3371 2.10714H32.9978C32.9978 2.10714 33.8608 2.0975 34.4699 2.70661C35.079 3.31571 38.6605 6.89723 39.26 7.4967C39.8595 8.09616 40.6317 8.53571 41.4353 8.53571C42.2388 8.53571 48.6674 8.53571 48.6674 8.53571C49.5546 8.53571 50.2746 9.25571 50.2746 10.1429V19.7857H39.1105C36.7424 15.027 31.843 11.75 26.1674 11.75C20.4918 11.75 15.5924 15.027 13.2243 19.7857H2.06027V10.1429C2.06027 9.25571 2.78027 8.53571 3.66741 8.53571ZM26.1674 13.3571C33.2686 13.3571 39.0246 19.1131 39.0246 26.2143C39.0246 33.3162 33.2686 39.0714 26.1674 39.0714C19.0662 39.0714 13.3103 33.3162 13.3103 26.2143C13.3103 19.1131 19.0662 13.3571 26.1674 13.3571ZM48.6674 43.8929H3.66741C2.78027 43.8929 2.06027 43.1729 2.06027 42.2857V21.3929H12.5437C12.0093 22.9028 11.7031 24.5212 11.7031 26.2143C11.7031 34.2026 18.1791 40.6786 26.1674 40.6786C34.1557 40.6786 40.6317 34.2026 40.6317 26.2143C40.6317 24.5212 40.3255 22.9028 39.7912 21.3929H50.2746V42.2857C50.2746 43.1729 49.5546 43.8929 48.6674 43.8929Z" fill="#2FDADF"/>
<path d="M26.1678 21.3923C28.8301 21.3923 30.9893 23.5515 30.9893 26.2137C30.9893 26.6581 31.3485 27.0173 31.7928 27.0173C32.2372 27.0173 32.5964 26.6581 32.5964 26.2137C32.5964 22.6635 29.718 19.7852 26.1678 19.7852C25.7235 19.7852 25.3643 20.1444 25.3643 20.5887C25.3643 21.0331 25.7235 21.3923 26.1678 21.3923Z" fill="#2FDADF"/>
<path d="M44.65 16.5714C45.9815 16.5714 47.0607 15.4914 47.0607 14.1607C47.0607 12.83 45.9815 11.75 44.65 11.75C43.3185 11.75 42.2393 12.83 42.2393 14.1607C42.2393 15.4914 43.3185 16.5714 44.65 16.5714ZM44.65 13.3571C45.0943 13.3571 45.4535 13.7163 45.4535 14.1607C45.4535 14.6051 45.0943 14.9643 44.65 14.9643C44.2056 14.9643 43.8464 14.6051 43.8464 14.1607C43.8464 13.7163 44.2056 13.3571 44.65 13.3571Z" fill="#2FDADF"/>
</svg>
