<svg width="39" height="44" viewBox="0 0 39 44" fill="none" xmlns="http://www.w3.org/2000/svg">
<path d="M7.62853 17.8173C6.42328 17.9736 5.98633 18.7245 5.98633 19.9161C5.98633 20.7105 6.78253 21.3669 8.37463 21.8853C10.1725 34.2945 28.7749 34.2945 29.8938 20.8856C31.3618 19.9505 32.0959 19.275 32.0959 18.8592C32.0959 18.0951 31.8288 17.5565 30.4453 17.0898" stroke="#2FDADF" stroke-width="2.4" stroke-linecap="round" stroke-linejoin="round"/>
<path d="M10.9922 13.512C12.614 10.7403 13.2105 7.96875 13.2105 7.96875C13.2105 7.96875 17.1767 12.0414 28.2489 13.512" stroke="#2FDADF" stroke-width="2.4" stroke-linecap="round" stroke-linejoin="round"/>
<path d="M21.0917 24.6133C20.036 24.8698 19.0004 25.5248 18.1895 24.6133" stroke="#2FDADF" stroke-width="2.4" stroke-linecap="round" stroke-linejoin="round"/>
<path d="M16.9102 18.5167C16.9414 17.8973 17.0624 17.3128 17.1218 16.7266" stroke="#2FDADF" stroke-width="2.4" stroke-linecap="round" stroke-linejoin="round"/>
<path d="M21.7509 18.3672C21.8151 17.7242 21.7223 17.0723 21.6719 16.4277" stroke="#2FDADF" stroke-width="2.4" stroke-linecap="round" stroke-linejoin="round"/>
<path d="M3.41243 36.0612C0.133119 23.0865 4.91022 5.56836 10.08 5.56836" stroke="#2FDADF" stroke-width="2.4" stroke-linecap="round" stroke-linejoin="round"/>
<path d="M13.5742 3.29299C37.6612 -7.09021 37.3251 29.4734 35.1612 36.0604" stroke="#2FDADF" stroke-width="2.4" stroke-linecap="round" stroke-linejoin="round"/>
<path d="M37.5748 42.5489C35.3067 39.1942 29.5533 36.4421 23.2677 35.3816C21.9687 35.1623 20.8183 40.9277 19.4998 40.8626C18.3171 40.8041 17.0299 34.8958 15.9783 34.9516C7.69345 35.3915 3.37245 39.0613 1.4248 41.003" stroke="#2FDADF" stroke-width="2.4" stroke-linecap="round" stroke-linejoin="round"/>
</svg>
