<svg width="51" height="38" viewBox="0 0 51 38" fill="none" xmlns="http://www.w3.org/2000/svg">
<g clip-path="url(#clip0_4079_20889)">
<path d="M0.833008 19.0007C0.899674 19.1527 0.999674 19.3554 1.13301 19.6087C1.26634 19.8621 1.56634 20.3561 2.03301 21.0907C2.49967 21.8254 3.01634 22.5727 3.58301 23.3327C4.14967 24.0927 4.84967 24.9541 5.68301 25.9167C6.51634 26.8794 7.44967 27.8167 8.48301 28.7287C9.51634 29.6407 10.633 30.5021 11.833 31.3127C13.033 32.1234 14.383 32.8707 15.883 33.5547C17.383 34.2387 18.933 34.7327 20.533 35.0367C22.133 35.3407 23.8997 35.5434 25.833 35.6447C28.133 35.6447 30.3663 35.3407 32.533 34.7327C34.6997 34.1247 36.583 33.3267 38.183 32.3387C39.783 31.3507 41.2997 30.274 42.733 29.1087C44.1663 27.9434 45.3663 26.7527 46.333 25.5367C47.2997 24.3207 48.133 23.2441 48.833 22.3067C49.533 21.3694 50.033 20.5841 50.333 19.9507L50.833 19.0007C50.7663 18.8741 50.6663 18.6841 50.533 18.4307C50.3997 18.1774 50.0997 17.6707 49.633 16.9107C49.1663 16.1507 48.6497 15.4161 48.083 14.7067C47.5163 13.9974 46.8163 13.1234 45.983 12.0847C45.1497 11.0461 44.2163 10.1214 43.183 9.31072C42.1497 8.50005 41.033 7.63872 39.833 6.72672C38.633 5.81472 37.2997 5.06739 35.833 4.48472C34.3663 3.90205 32.7997 3.39539 31.133 2.96472C29.4663 2.53405 27.6997 2.34405 25.833 2.39472C23.533 2.39472 21.2997 2.69872 19.133 3.30672C16.9663 3.91472 15.083 4.71272 13.483 5.70072C11.883 6.68872 10.3663 7.76539 8.93301 8.93072C7.49967 10.0961 6.29967 11.2741 5.33301 12.4647C4.36634 13.6554 3.53301 14.7321 2.83301 15.6947C2.13301 16.6574 1.63301 17.4554 1.33301 18.0887L0.833008 19.0007ZM10.233 19.0007C10.233 16.8474 10.933 14.8587 12.333 13.0347C13.733 11.2107 15.6163 9.77939 17.983 8.74072C20.3497 7.70205 22.9663 7.17005 25.833 7.14472C27.9663 7.14472 29.983 7.46139 31.883 8.09472C33.783 8.72805 35.4497 9.56405 36.883 10.6027C38.3163 11.6414 39.433 12.9081 40.233 14.4027C41.033 15.8974 41.4497 17.4301 41.483 19.0007C41.483 21.1541 40.783 23.1427 39.383 24.9667C37.983 26.7907 36.083 28.2347 33.683 29.2987C31.283 30.3627 28.6663 30.8947 25.833 30.8947C23.733 30.8947 21.7163 30.5781 19.783 29.9447C17.8497 29.3114 16.183 28.4627 14.783 27.3987C13.383 26.3347 12.2663 25.0807 11.433 23.6367C10.5997 22.1927 10.1997 20.6474 10.233 19.0007ZM16.483 19.0007C16.483 20.9767 17.383 22.6614 19.183 24.0547C20.983 25.4481 23.1997 26.1447 25.833 26.1447C28.4663 26.1447 30.683 25.4481 32.483 24.0547C34.283 22.6614 35.1997 20.9767 35.233 19.0007C35.2663 17.0247 34.3497 15.3527 32.483 13.9847C30.6163 12.6167 28.3997 11.9201 25.833 11.8947C24.833 11.8947 23.7997 12.0341 22.733 12.3127V16.6447H17.033C16.6663 17.4301 16.483 18.2154 16.483 19.0007Z" fill="#2FDADF"/>
</g>
<defs>
<clipPath id="clip0_4079_20889">
<rect width="50" height="38" fill="white" transform="translate(0.833008)"/>
</clipPath>
</defs>
</svg>
