<svg width="61" height="60" viewBox="0 0 61 60" fill="none" xmlns="http://www.w3.org/2000/svg">
<path d="M52.667 42.6757L39.492 45.6007C36.399 46.2994 33.2379 46.6515 30.067 46.6507C26.8961 46.6515 23.735 46.2994 20.642 45.6007L7.66701 42.6757C6.61654 42.4685 5.66976 41.9051 4.98654 41.0807C4.30333 40.2563 3.92556 39.2214 3.91701 38.1507C3.91485 37.4518 4.07028 36.7613 4.37174 36.1307C4.67321 35.5001 5.11295 34.9456 5.65826 34.5084C6.20358 34.0712 6.84044 33.7625 7.52149 33.6054C8.20254 33.4482 8.91026 33.4466 9.59201 33.6007L20.742 36.1007C23.8379 36.7789 26.9977 37.1226 30.167 37.1257C33.3363 37.1226 36.4961 36.7789 39.592 36.1007L50.742 33.6007C51.4238 33.4466 52.1315 33.4482 52.8125 33.6054C53.4936 33.7625 54.1305 34.0712 54.6758 34.5084C55.2211 34.9456 55.6608 35.5001 55.9623 36.1307C56.2637 36.7613 56.4192 37.4518 56.417 38.1507C56.4085 39.2214 56.0307 40.2563 55.3475 41.0807C54.6643 41.9051 53.7175 42.4685 52.667 42.6757Z" stroke="#2FDADF" stroke-width="4.775" stroke-miterlimit="10"/>
<path d="M13.5166 25L20.7416 26.6C23.842 27.2362 27.0018 27.5379 30.1666 27.5C33.3359 27.4968 36.4957 27.1532 39.5916 26.475L46.8166 25" stroke="#2FDADF" stroke-width="4.775" stroke-miterlimit="10"/>
<path d="M11.9922 34.1248L14.9922 16.0498C15.2296 14.597 15.9762 13.2761 17.0984 12.3234C18.2206 11.3707 19.6451 10.8483 21.1172 10.8498C22.355 10.8406 23.5666 11.2067 24.5922 11.8998L30.1672 15.6248L35.7422 11.8998C36.7678 11.2067 37.9794 10.8406 39.2172 10.8498C40.6912 10.8494 42.1175 11.3721 43.2422 12.3248C44.3652 13.2753 45.1103 14.5969 45.3422 16.0498L48.3422 34.1248" stroke="#2FDADF" stroke-width="4.775" stroke-miterlimit="10"/>
</svg>
