<svg width="51" height="50" viewBox="0 0 51 50" fill="none" xmlns="http://www.w3.org/2000/svg">
<g clip-path="url(#clip0_4079_20906)">
<path d="M15.5003 15H22.8633C22.6343 14.035 22.5003 13.034 22.5003 12C22.5003 10.966 22.6343 9.965 22.8633 9H15.5003C14.3973 9 13.5003 9.897 13.5003 11V13C13.5003 14.103 14.3973 15 15.5003 15ZM22.3743 40.46C22.4483 40.32 22.5003 40.169 22.5003 40C22.5003 39.447 22.0523 39 21.5003 39H20.5003V19H21.5003C22.0523 19 22.5003 18.553 22.5003 18V17H16.5003V18C16.5003 18.553 16.9483 19 17.5003 19H18.5003V39H17.5003C16.9483 39 16.5003 39.447 16.5003 40C16.5003 40.169 16.5523 40.32 16.6263 40.46L9.79325 47.293C9.40225 47.684 9.40225 48.316 9.79325 48.707C9.98825 48.902 10.2442 49 10.5002 49C10.7562 49 11.0122 48.902 11.2072 48.707L18.5003 41.414V49C18.5003 49.553 18.9483 50 19.5003 50C20.0523 50 20.5003 49.553 20.5003 49V41.414L27.7933 48.707C27.9883 48.902 28.2443 49 28.5003 49C28.7563 49 29.0123 48.902 29.2073 48.707C29.5983 48.316 29.5983 47.684 29.2073 47.293L22.3743 40.46ZM24.5003 12C24.5003 18.065 29.4353 23 35.5003 23V1C29.4353 1 24.5003 5.935 24.5003 12ZM39.5003 0H37.5003V24H39.5003C40.0523 24 40.5003 23.553 40.5003 23V1C40.5003 0.447 40.0523 0 39.5003 0Z" fill="#2FDADF"/>
</g>
<defs>
<clipPath id="clip0_4079_20906">
<rect width="50" height="50" fill="white" transform="translate(0.5)"/>
</clipPath>
</defs>
</svg>
