<svg width="61" height="60" viewBox="0 0 61 60" fill="none" xmlns="http://www.w3.org/2000/svg">
<path d="M15.8328 12.5C15.1646 12.5 14.8305 12.5 14.5416 12.5224C11.1358 12.7859 8.33836 15.3176 7.73726 18.6802C7.68626 18.9654 7.65301 19.2979 7.58653 19.9628L5.88481 36.476M25.8328 37.5H35.8328M25.8328 37.5C25.8328 43.0228 21.3559 47.5 15.833 47.5C10.3102 47.5 5.83301 43.0228 5.83301 37.5C5.83301 31.9772 10.3102 27.5 15.833 27.5C21.3559 27.5 25.8328 31.9772 25.8328 37.5ZM35.8328 37.5C35.8328 43.0228 40.3103 47.5 45.833 47.5C51.3558 47.5 55.833 43.0228 55.833 37.5C55.833 31.9772 51.3558 27.5 45.833 27.5C40.3103 27.5 35.8328 31.9772 35.8328 37.5ZM45.8705 12.5C46.5388 12.5 46.8728 12.5 47.1618 12.5224C50.5675 12.7859 53.3648 15.3176 53.966 18.6802C54.017 18.9654 54.0503 19.2979 54.1168 19.9628L55.784 36.505" stroke="#2FDADF" stroke-width="5" stroke-linecap="round" stroke-linejoin="round"/>
</svg>
