<svg width="61" height="60" viewBox="0 0 61 60" fill="none" xmlns="http://www.w3.org/2000/svg">
<g clip-path="url(#clip0_4079_20920)">
<path d="M5.35875 7.51344C5.09977 7.51344 4.88555 7.30391 4.88555 7.0448C4.88555 6.7857 5.09063 6.57617 5.34867 6.57617H5.35875C5.6168 6.57617 5.82738 6.7857 5.82738 7.0448C5.82738 7.30391 5.6168 7.51344 5.35875 7.51344ZM7.23316 7.51344C6.97418 7.51344 6.75996 7.30391 6.75996 7.0448C6.75996 6.7857 6.96504 6.57617 7.22309 6.57617H7.23316C7.49121 6.57617 7.7018 6.7857 7.7018 7.0448C7.7018 7.30391 7.49121 7.51344 7.23316 7.51344ZM9.10758 7.51344C8.84859 7.51344 8.63437 7.30391 8.63437 7.0448C8.63437 6.7857 8.83945 6.57617 9.0975 6.57617H9.10758C9.36562 6.57617 9.57621 6.7857 9.57621 7.0448C9.57621 7.30391 9.36574 7.51344 9.10758 7.51344ZM50.3449 19.6973C50.0858 19.6973 49.8718 19.4877 49.8718 19.2287C49.8718 18.9697 50.0767 18.76 50.3348 18.76H50.3449C50.4674 18.7628 50.5839 18.8134 50.6696 18.9009C50.7552 18.9885 50.8032 19.1062 50.8032 19.2287C50.8032 19.3512 50.7552 19.4688 50.6696 19.5564C50.5839 19.644 50.4674 19.6946 50.3449 19.6973ZM59.6889 40.3012H0.644414C0.582869 40.3013 0.521919 40.2892 0.465049 40.2656C0.408178 40.2421 0.356503 40.2076 0.312979 40.1641C0.269455 40.1206 0.234935 40.0689 0.211393 40.0121C0.187852 39.9552 0.17575 39.8942 0.175781 39.8327C0.175751 39.7711 0.187851 39.7102 0.211391 39.6533C0.234931 39.5965 0.269449 39.5448 0.312972 39.5013C0.356495 39.4577 0.408169 39.4232 0.46504 39.3997C0.521911 39.3761 0.582864 39.364 0.644414 39.3641H59.6889C59.7504 39.364 59.8114 39.3761 59.8682 39.3997C59.9251 39.4232 59.9768 39.4577 60.0203 39.5013C60.0638 39.5448 60.0983 39.5965 60.1218 39.6533C60.1453 39.7102 60.1574 39.7712 60.1574 39.8327C60.1574 39.8942 60.1453 39.9552 60.1218 40.012C60.0982 40.0689 60.0637 40.1205 60.0202 40.1641C59.9767 40.2076 59.9251 40.2421 59.8682 40.2656C59.8113 40.2891 59.7504 40.3012 59.6889 40.3012ZM30.1665 44.9855C29.1332 44.9855 28.2921 44.1444 28.2921 43.1111C28.2921 42.0779 29.1332 41.2367 30.1665 41.2367C31.1999 41.2367 32.0411 42.0779 32.0411 43.1111C32.0411 44.1444 31.1999 44.9855 30.1665 44.9855ZM30.1665 42.174C29.6494 42.174 29.2293 42.594 29.2293 43.1111C29.2293 43.6283 29.6494 44.0483 30.1665 44.0483C30.6836 44.0483 31.1038 43.6283 31.1038 43.1111C31.1038 42.594 30.6836 42.174 30.1665 42.174ZM22.2057 57.1711C22.1356 57.1709 22.0664 57.1551 22.0032 57.1247C21.94 57.0944 21.8844 57.0502 21.8405 56.9955C21.7966 56.9408 21.7655 56.877 21.7495 56.8087C21.7335 56.7404 21.7331 56.6694 21.7481 56.6009L23.6225 48.166C23.6784 47.9143 23.9282 47.7559 24.1818 47.8099C24.303 47.837 24.4086 47.9111 24.4754 48.0159C24.5421 48.1207 24.5646 48.2477 24.5379 48.3691L22.6635 56.804C22.6403 56.9081 22.5823 57.0012 22.4991 57.068C22.4159 57.1347 22.3124 57.171 22.2057 57.1711ZM38.1273 57.1711C38.0207 57.171 37.9172 57.1347 37.8341 57.0679C37.7509 57.0012 37.6929 56.9081 37.6698 56.804L35.7955 48.3691C35.7687 48.2478 35.7911 48.1208 35.8579 48.0159C35.9246 47.9111 36.0301 47.837 36.1514 47.8099C36.4059 47.7559 36.6547 47.9143 36.7105 48.166L38.585 56.6009C38.6001 56.6694 38.5997 56.7405 38.5837 56.8088C38.5677 56.8771 38.5366 56.9409 38.4927 56.9956C38.4488 57.0503 38.3931 57.0944 38.3299 57.1248C38.2667 57.1552 38.1974 57.171 38.1273 57.1711Z" fill="#2FDADF"/>
<path d="M39.5398 57.1727H20.7954C20.7338 57.1727 20.6729 57.1606 20.616 57.1371C20.5591 57.1135 20.5074 57.079 20.4639 57.0355C20.4204 56.992 20.3859 56.9403 20.3623 56.8834C20.3388 56.8265 20.3267 56.7656 20.3268 56.704C20.3267 56.6425 20.3388 56.5815 20.3624 56.5247C20.3859 56.4678 20.4204 56.4161 20.464 56.3726C20.5075 56.3291 20.5592 56.2946 20.616 56.2711C20.6729 56.2475 20.7338 56.2355 20.7954 56.2355H39.5398C39.6013 56.2355 39.6622 56.2476 39.7191 56.2711C39.776 56.2946 39.8276 56.3291 39.8711 56.3727C39.9146 56.4162 39.9491 56.4678 39.9727 56.5247C39.9962 56.5815 40.0083 56.6425 40.0083 56.704C40.0083 56.7656 39.9962 56.8265 39.9727 56.8834C39.9492 56.9403 39.9147 56.9919 39.8712 57.0355C39.8277 57.079 39.776 57.1135 39.7191 57.137C39.6623 57.1606 39.6013 57.1727 39.5398 57.1727ZM56.878 37.5059H3.45691C3.39536 37.5059 3.33441 37.4938 3.27754 37.4703C3.22067 37.4467 3.16899 37.4122 3.12547 37.3687C3.08195 37.3252 3.04743 37.2735 3.02389 37.2166C3.00035 37.1598 2.98825 37.0988 2.98828 37.0373V6.10926C2.98825 6.04771 3.00035 5.98675 3.02389 5.92988C3.04743 5.87301 3.08195 5.82134 3.12547 5.77782C3.16899 5.73429 3.22067 5.69978 3.27754 5.67623C3.33441 5.65269 3.39536 5.64059 3.45691 5.64063H56.878C57.1371 5.64063 57.3468 5.85027 57.3468 6.10926V37.0373C57.3468 37.0988 57.3347 37.1598 57.3111 37.2167C57.2876 37.2735 57.2531 37.3252 57.2095 37.3687C57.166 37.4123 57.1143 37.4468 57.0574 37.4703C57.0005 37.4939 56.9396 37.5059 56.878 37.5059ZM3.92555 36.5686H56.4095V6.57789H3.92555V36.5686Z" fill="#2FDADF"/>
<path d="M56.8771 46.8772H3.45598C1.64742 46.8772 0.175781 45.4054 0.175781 43.597V6.10832C0.175781 4.29977 1.64754 2.82812 3.45598 2.82812H56.8771C58.6857 2.82812 60.1574 4.29988 60.1574 6.10832V43.5968C60.1574 45.4054 58.6856 46.8772 56.8771 46.8772ZM3.45598 3.76527C2.16363 3.76527 1.11293 4.81645 1.11293 6.10832V43.5968C1.11293 44.8891 2.16363 45.9398 3.45598 45.9398H56.8771C58.1695 45.9398 59.2201 44.8891 59.2201 43.5968V6.10832C59.2201 4.81645 58.1695 3.76527 56.8771 3.76527H3.45598Z" fill="#2FDADF"/>
<path d="M56.8771 48.7365H3.45598C1.61637 48.7365 0.175781 47.2959 0.175781 45.4563V43.5819C0.175751 43.5203 0.187851 43.4594 0.211391 43.4025C0.234931 43.3456 0.269449 43.294 0.312972 43.2504C0.356495 43.2069 0.408169 43.1724 0.46504 43.1488C0.521911 43.1253 0.582864 43.1132 0.644414 43.1132C0.705965 43.1132 0.766918 43.1253 0.823789 43.1488C0.88066 43.1724 0.932334 43.2069 0.975856 43.2504C1.01938 43.294 1.0539 43.3456 1.07744 43.4025C1.10098 43.4594 1.11308 43.5203 1.11305 43.5819V45.4563C1.11305 46.7705 2.14184 47.7992 3.45609 47.7992H56.8772C58.1917 47.7992 59.2202 46.7705 59.2202 45.4563V43.5965C59.2202 43.535 59.2323 43.474 59.2559 43.4171C59.2794 43.3602 59.3139 43.3086 59.3575 43.265C59.401 43.2215 59.4527 43.187 59.5096 43.1635C59.5665 43.1399 59.6274 43.1278 59.689 43.1279C59.7505 43.1279 59.8115 43.14 59.8683 43.1635C59.9252 43.187 59.9769 43.2216 60.0204 43.2651C60.0639 43.3086 60.0984 43.3603 60.1219 43.4172C60.1455 43.474 60.1576 43.535 60.1575 43.5965V45.4563C60.1574 47.2959 58.7168 48.7365 56.8771 48.7365ZM56.8771 8.45094H3.45598C3.19699 8.45094 2.98734 8.24129 2.98734 7.9823C2.98734 7.72332 3.19699 7.51367 3.45598 7.51367H56.8771C57.1362 7.51367 57.3458 7.72332 57.3458 7.9823C57.3458 8.24129 57.1362 8.45094 56.8771 8.45094ZM6.26754 35.6301C6.20599 35.6301 6.14504 35.618 6.08817 35.5945C6.03129 35.571 5.97962 35.5365 5.9361 35.4929C5.89257 35.4494 5.85806 35.3977 5.83452 35.3409C5.81098 35.284 5.79888 35.223 5.79891 35.1615V9.85672C5.79891 9.59773 6.00844 9.38809 6.26754 9.38809C6.52664 9.38809 6.73617 9.59773 6.73617 9.85672V35.1615C6.73622 35.223 6.72413 35.284 6.70059 35.3409C6.67706 35.3978 6.64254 35.4494 6.59902 35.493C6.55549 35.5365 6.50381 35.571 6.44693 35.5945C6.39005 35.6181 6.32909 35.6302 6.26754 35.6301Z" fill="#2FDADF"/>
<path d="M48.4424 37.5045C48.1833 37.5045 47.9736 37.2949 47.9736 37.0359V7.9823C47.9736 7.92074 47.9857 7.85978 48.0093 7.8029C48.0328 7.74602 48.0673 7.69434 48.1109 7.65082C48.1544 7.6073 48.2061 7.57278 48.263 7.54925C48.3199 7.52571 48.3808 7.51363 48.4424 7.51367C48.5039 7.51366 48.5649 7.52577 48.6217 7.54931C48.6786 7.57286 48.7302 7.60738 48.7738 7.6509C48.8173 7.69442 48.8518 7.74609 48.8753 7.80296C48.8988 7.85982 48.9109 7.92076 48.9109 7.9823V37.0359C48.9109 37.0974 48.8988 37.1584 48.8753 37.2152C48.8518 37.2721 48.8173 37.3238 48.7738 37.3673C48.7302 37.4108 48.6786 37.4453 48.6217 37.4689C48.5649 37.4924 48.5039 37.5045 48.4424 37.5045Z" fill="#2FDADF"/>
<path d="M56.878 15.9493H48.4432C48.1841 15.9493 47.9745 15.7396 47.9745 15.4807C47.9745 15.2217 48.1841 15.012 48.4432 15.012H56.878C57.1371 15.012 57.3468 15.2217 57.3468 15.4807C57.3468 15.7396 57.1371 15.9493 56.878 15.9493ZM6.26848 13.1375H3.45691C3.19793 13.1375 2.98828 12.928 2.98828 12.6689C2.98828 12.4098 3.19793 12.2002 3.45691 12.2002H6.26859C6.52758 12.2002 6.73723 12.4098 6.73723 12.6689C6.73723 12.928 6.52758 13.1375 6.26848 13.1375ZM6.26848 15.9493H3.45691C3.19793 15.9493 2.98828 15.7396 2.98828 15.4807C2.98828 15.2217 3.19793 15.012 3.45691 15.012H6.26859C6.52758 15.012 6.73723 15.2217 6.73723 15.4807C6.73723 15.7396 6.52758 15.9493 6.26848 15.9493ZM6.26848 18.7609H3.45691C3.19793 18.7609 2.98828 18.5513 2.98828 18.2922C2.98828 18.0331 3.19793 17.8236 3.45691 17.8236H6.26859C6.52758 17.8236 6.73723 18.0331 6.73723 18.2922C6.73723 18.5513 6.52758 18.7609 6.26848 18.7609ZM6.26848 21.5725H3.45691C3.39536 21.5726 3.33441 21.5605 3.27754 21.5369C3.22067 21.5134 3.16899 21.4789 3.12547 21.4353C3.08195 21.3918 3.04743 21.3402 3.02389 21.2833C3.00035 21.2264 2.98825 21.1655 2.98828 21.1039C2.98825 21.0424 3.00035 20.9814 3.02389 20.9245C3.04743 20.8677 3.08195 20.816 3.12547 20.7725C3.16899 20.7289 3.22067 20.6944 3.27754 20.6709C3.33441 20.6473 3.39536 20.6352 3.45691 20.6353H6.26859C6.33014 20.6352 6.3911 20.6473 6.44797 20.6709C6.50484 20.6944 6.55651 20.7289 6.60004 20.7725C6.64356 20.816 6.67808 20.8677 6.70162 20.9245C6.72516 20.9814 6.73726 21.0424 6.73723 21.1039C6.73724 21.1655 6.72513 21.2264 6.70157 21.2833C6.67802 21.3402 6.64349 21.3918 6.59996 21.4354C6.55643 21.4789 6.50475 21.5134 6.44787 21.5369C6.39099 21.5605 6.33003 21.5726 6.26848 21.5725ZM6.26848 24.3841H3.45691C3.39536 24.3841 3.33441 24.372 3.27754 24.3485C3.22067 24.325 3.16899 24.2904 3.12547 24.2469C3.08195 24.2034 3.04743 24.1517 3.02389 24.0948C3.00035 24.038 2.98825 23.977 2.98828 23.9155C2.98825 23.8539 3.00035 23.793 3.02389 23.7361C3.04743 23.6792 3.08195 23.6275 3.12547 23.584C3.16899 23.5405 3.22067 23.506 3.27754 23.4824C3.33441 23.4589 3.39536 23.4468 3.45691 23.4468H6.26859C6.33014 23.4468 6.3911 23.4589 6.44797 23.4824C6.50484 23.506 6.55651 23.5405 6.60004 23.584C6.64356 23.6275 6.67808 23.6792 6.70162 23.7361C6.72516 23.793 6.73726 23.8539 6.73723 23.9155C6.73726 23.977 6.72515 24.038 6.70161 24.0949C6.67806 24.1517 6.64353 24.2034 6.59999 24.247C6.55646 24.2905 6.50477 24.325 6.44789 24.3485C6.391 24.3721 6.33004 24.3841 6.26848 24.3841ZM6.26848 27.1958H3.45691C3.39536 27.1958 3.33441 27.1837 3.27754 27.1602C3.22067 27.1366 3.16899 27.1021 3.12547 27.0586C3.08195 27.0151 3.04743 26.9634 3.02389 26.9065C3.00035 26.8497 2.98825 26.7887 2.98828 26.7271C2.98825 26.6656 3.00035 26.6046 3.02389 26.5478C3.04743 26.4909 3.08195 26.4392 3.12547 26.3957C3.16899 26.3522 3.22067 26.3177 3.27754 26.2941C3.33441 26.2706 3.39536 26.2585 3.45691 26.2585H6.26859C6.33014 26.2585 6.3911 26.2706 6.44797 26.2941C6.50484 26.3177 6.55651 26.3522 6.60004 26.3957C6.64356 26.4392 6.67808 26.4909 6.70162 26.5478C6.72516 26.6046 6.73726 26.6656 6.73723 26.7271C6.73724 26.7887 6.72513 26.8497 6.70157 26.9065C6.67802 26.9634 6.64349 27.0151 6.59996 27.0586C6.55643 27.1021 6.50475 27.1366 6.44787 27.1602C6.39099 27.1837 6.33003 27.1958 6.26848 27.1958ZM6.26848 30.0073H3.45691C3.39536 30.0074 3.33441 29.9953 3.27754 29.9717C3.22067 29.9482 3.16899 29.9137 3.12547 29.8702C3.08195 29.8266 3.04743 29.775 3.02389 29.7181C3.00035 29.6612 2.98825 29.6003 2.98828 29.5387C2.98825 29.4772 3.00035 29.4162 3.02389 29.3593C3.04743 29.3025 3.08195 29.2508 3.12547 29.2073C3.16899 29.1637 3.22067 29.1292 3.27754 29.1057C3.33441 29.0821 3.39536 29.07 3.45691 29.0701H6.26859C6.33014 29.07 6.3911 29.0821 6.44797 29.1057C6.50484 29.1292 6.55651 29.1637 6.60004 29.2073C6.64356 29.2508 6.67808 29.3025 6.70162 29.3593C6.72516 29.4162 6.73726 29.4772 6.73723 29.5387C6.73726 29.6003 6.72515 29.6612 6.70161 29.7181C6.67806 29.775 6.64353 29.8267 6.59999 29.8702C6.55646 29.9137 6.50477 29.9482 6.44789 29.9718C6.391 29.9953 6.33004 30.0074 6.26848 30.0073ZM6.26848 32.819H3.45691C3.39537 32.8191 3.33442 32.807 3.27755 32.7835C3.22068 32.7599 3.169 32.7254 3.12548 32.6819C3.08195 32.6384 3.04743 32.5867 3.02389 32.5299C3.00035 32.473 2.98825 32.4121 2.98828 32.3505C2.98825 32.289 3.00035 32.228 3.02389 32.1711C3.04743 32.1143 3.08195 32.0626 3.12547 32.0191C3.16899 31.9755 3.22067 31.941 3.27754 31.9175C3.33441 31.8939 3.39536 31.8818 3.45691 31.8819H6.26859C6.33014 31.8818 6.3911 31.8939 6.44797 31.9175C6.50484 31.941 6.55651 31.9755 6.60004 32.0191C6.64356 32.0626 6.67808 32.1143 6.70162 32.1711C6.72516 32.228 6.73726 32.289 6.73723 32.3505C6.73724 32.4121 6.72513 32.473 6.70157 32.5299C6.67802 32.5867 6.64349 32.6384 6.59995 32.6819C6.55642 32.7254 6.50474 32.7599 6.44786 32.7835C6.39098 32.807 6.33003 32.8191 6.26848 32.819ZM6.26848 35.6307H3.45691C3.39536 35.6307 3.33441 35.6186 3.27754 35.5951C3.22067 35.5716 3.16899 35.537 3.12547 35.4935C3.08195 35.45 3.04743 35.3983 3.02389 35.3414C3.00035 35.2846 2.98825 35.2236 2.98828 35.1621C2.98825 35.1005 3.00035 35.0396 3.02389 34.9827C3.04743 34.9258 3.08195 34.8742 3.12548 34.8307C3.169 34.7872 3.22068 34.7526 3.27755 34.7291C3.33442 34.7056 3.39537 34.6935 3.45691 34.6936H6.26859C6.33014 34.6935 6.39109 34.7056 6.44796 34.7291C6.50483 34.7526 6.5565 34.7872 6.60003 34.8307C6.64355 34.8742 6.67807 34.9258 6.70161 34.9827C6.72516 35.0396 6.73726 35.1005 6.73723 35.1621C6.73726 35.2236 6.72515 35.2846 6.70161 35.3415C6.67806 35.3983 6.64353 35.45 6.59999 35.4936C6.55646 35.5371 6.50477 35.5716 6.44789 35.5951C6.391 35.6187 6.33004 35.6307 6.26848 35.6307ZM6.26848 10.3259H3.45691C3.19793 10.3259 2.98828 10.1163 2.98828 9.8573C2.98828 9.59832 3.19793 9.38867 3.45691 9.38867H6.26859C6.52758 9.38867 6.73723 9.59832 6.73723 9.8573C6.73723 10.1163 6.52758 10.3259 6.26848 10.3259ZM55.0037 11.2631H50.3176C50.0585 11.2631 49.8491 11.0536 49.8491 10.7945C49.8491 10.5354 50.0585 10.3258 50.3176 10.3258H55.0037C55.2626 10.3258 55.4722 10.5354 55.4722 10.7945C55.4722 11.0536 55.2626 11.2631 55.0037 11.2631ZM55.0037 13.1375H50.3176C50.0585 13.1375 49.8491 12.928 49.8491 12.6689C49.8491 12.4098 50.0585 12.2002 50.3176 12.2002H55.0037C55.2626 12.2002 55.4722 12.4098 55.4722 12.6689C55.4722 12.928 55.2626 13.1375 55.0037 13.1375ZM55.0037 19.6981H52.1922C51.933 19.6981 51.7234 19.4885 51.7234 19.2295C51.7234 19.1679 51.7355 19.107 51.759 19.0501C51.7826 18.9932 51.8171 18.9415 51.8606 18.898C51.9042 18.8545 51.9559 18.82 52.0127 18.7964C52.0696 18.7729 52.1306 18.7608 52.1922 18.7609H55.0037C55.0653 18.7608 55.1262 18.773 55.1831 18.7965C55.2399 18.8201 55.2916 18.8546 55.3351 18.8981C55.3786 18.9416 55.4131 18.9933 55.4366 19.0501C55.4602 19.107 55.4723 19.168 55.4722 19.2295C55.4723 19.291 55.4602 19.352 55.4366 19.4088C55.4131 19.4657 55.3786 19.5174 55.3351 19.5609C55.2916 19.6044 55.2399 19.6389 55.1831 19.6625C55.1262 19.686 55.0653 19.6981 55.0037 19.6981ZM50.3459 22.5097C50.0868 22.5097 49.8728 22.3002 49.8728 22.0411C49.8728 21.782 50.0776 21.5724 50.3358 21.5724H50.3459C50.4683 21.5752 50.5849 21.6257 50.6705 21.7133C50.7562 21.8009 50.8041 21.9185 50.8041 22.0411C50.8041 22.1636 50.7562 22.2812 50.6705 22.3688C50.5849 22.4564 50.4683 22.5069 50.3459 22.5097ZM55.0037 22.5097H52.1922C51.933 22.5097 51.7234 22.3002 51.7234 22.0411C51.7234 21.782 51.933 21.5724 52.1922 21.5724H55.0037C55.2626 21.5724 55.4722 21.782 55.4722 22.0411C55.4722 22.3002 55.2626 22.5097 55.0037 22.5097ZM50.3459 25.3214C50.0868 25.3214 49.8728 25.1117 49.8728 24.8527C49.8728 24.5938 50.0776 24.3841 50.3358 24.3841H50.3459C50.4683 24.3868 50.5849 24.4374 50.6705 24.525C50.7562 24.6126 50.8041 24.7302 50.8041 24.8527C50.8041 24.9752 50.7562 25.0929 50.6705 25.1805C50.5849 25.2681 50.4683 25.3186 50.3459 25.3214ZM55.0037 25.3214H52.1922C51.933 25.3214 51.7234 25.1117 51.7234 24.8527C51.7234 24.7912 51.7355 24.7302 51.759 24.6733C51.7826 24.6165 51.8171 24.5648 51.8606 24.5213C51.9042 24.4777 51.9559 24.4432 52.0127 24.4197C52.0696 24.3961 52.1306 24.3841 52.1922 24.3841H55.0037C55.0653 24.3841 55.1262 24.3962 55.1831 24.4197C55.2399 24.4433 55.2916 24.4778 55.3351 24.5213C55.3786 24.5649 55.4131 24.6165 55.4366 24.6734C55.4602 24.7302 55.4723 24.7912 55.4722 24.8527C55.4723 24.9143 55.4602 24.9752 55.4366 25.0321C55.4131 25.0889 55.3786 25.1406 55.3351 25.1841C55.2916 25.2277 55.2399 25.2622 55.1831 25.2857C55.1262 25.3093 55.0653 25.3214 55.0037 25.3214ZM50.3459 28.1329C50.0868 28.1329 49.8728 27.9234 49.8728 27.6643C49.8728 27.4053 50.0776 27.1957 50.3358 27.1957H50.3459C50.4701 27.1957 50.5893 27.245 50.6772 27.3329C50.7651 27.4208 50.8145 27.54 50.8145 27.6643C50.8145 27.7886 50.7651 27.9078 50.6772 27.9957C50.5893 28.0836 50.4701 28.1329 50.3459 28.1329ZM55.0037 28.1329H52.1922C51.933 28.1329 51.7234 27.9234 51.7234 27.6643C51.7234 27.6027 51.7355 27.5418 51.759 27.4849C51.7826 27.428 51.8171 27.3763 51.8606 27.3328C51.9042 27.2893 51.9559 27.2548 52.0127 27.2312C52.0696 27.2077 52.1306 27.1956 52.1922 27.1957H55.0037C55.0653 27.1956 55.1262 27.2078 55.1831 27.2313C55.2399 27.2549 55.2916 27.2894 55.3351 27.3329C55.3786 27.3764 55.4131 27.4281 55.4366 27.4849C55.4602 27.5418 55.4723 27.6028 55.4722 27.6643C55.4723 27.7258 55.4602 27.7868 55.4367 27.8437C55.4131 27.9005 55.3786 27.9522 55.3351 27.9957C55.2916 28.0393 55.2399 28.0738 55.1831 28.0973C55.1262 28.1209 55.0653 28.133 55.0037 28.1329ZM50.3459 30.9447C50.0868 30.9447 49.8728 30.7351 49.8728 30.4761C49.8728 30.2171 50.0776 30.0075 50.3358 30.0075H50.3459C50.4683 30.0102 50.5849 30.0608 50.6705 30.1484C50.7562 30.236 50.8041 30.3536 50.8041 30.4761C50.8041 30.5986 50.7562 30.7162 50.6705 30.8038C50.5849 30.8914 50.4683 30.942 50.3459 30.9447ZM55.0037 30.9447H52.1922C51.933 30.9447 51.7234 30.7351 51.7234 30.4761C51.7234 30.2171 51.933 30.0075 52.1922 30.0075H55.0037C55.2626 30.0075 55.4722 30.2171 55.4722 30.4761C55.4722 30.7351 55.2626 30.9447 55.0037 30.9447Z" fill="#2FDADF"/>
<path d="M50.3452 33.7556C50.0861 33.7556 49.8721 33.546 49.8721 33.287C49.8721 33.028 50.0769 32.8184 50.3351 32.8184H50.3452C50.4676 32.8211 50.5842 32.8717 50.6698 32.9593C50.7555 33.0469 50.8034 33.1645 50.8034 33.287C50.8034 33.4095 50.7555 33.5271 50.6698 33.6147C50.5842 33.7023 50.4676 33.7529 50.3452 33.7556Z" fill="#2FDADF"/>
<path d="M55.003 33.7556H52.1914C51.9323 33.7556 51.7227 33.546 51.7227 33.287C51.7227 33.028 51.9323 32.8184 52.1914 32.8184H55.003C55.2618 32.8184 55.4715 33.028 55.4715 33.287C55.4715 33.546 55.2618 33.7556 55.003 33.7556Z" fill="#2FDADF"/>
<path d="M32.5096 37.5055H10.0165C9.95493 37.5055 9.89398 37.4934 9.83711 37.4699C9.78024 37.4463 9.72856 37.4118 9.68504 37.3683C9.64152 37.3248 9.607 37.2731 9.58346 37.2162C9.55992 37.1593 9.54782 37.0984 9.54785 37.0368V36.0814C9.54785 34.2929 10.4987 33.5864 12.1417 32.9714C12.4638 32.8515 12.9005 32.7325 13.3864 32.6007C14.8436 32.2063 17.0456 31.6105 17.0456 30.4764C17.0456 30.2175 17.2552 30.0078 17.5143 30.0078C17.7734 30.0078 17.9829 30.2175 17.9829 30.4764C17.9829 32.328 15.4678 33.008 13.6318 33.505C13.1779 33.6286 12.7697 33.7374 12.4695 33.85C10.9117 34.433 10.4851 34.9126 10.4851 36.0814V36.5682H32.0412V36.0814C32.0412 34.9126 31.6145 34.433 30.0568 33.85C29.7566 33.7374 29.3484 33.6276 28.8935 33.505C27.0575 33.008 24.5434 32.3271 24.5434 30.4764C24.5434 30.2175 24.7529 30.0078 25.012 30.0078C25.2711 30.0078 25.4807 30.2175 25.4807 30.4764C25.4807 31.6095 27.6818 32.2063 29.1389 32.5998C29.6258 32.7325 30.0634 32.8514 30.3846 32.9714C32.0276 33.5864 32.9783 34.2929 32.9783 36.0814V37.0368C32.9783 37.0984 32.9662 37.1593 32.9426 37.2162C32.9191 37.2731 32.8845 37.3247 32.841 37.3683C32.7975 37.4118 32.7458 37.4463 32.6889 37.4698C32.6321 37.4934 32.5711 37.5055 32.5096 37.5055Z" fill="#2FDADF"/>
<path d="M17.5151 30.944C17.4535 30.944 17.3926 30.9319 17.3357 30.9084C17.2788 30.8848 17.2272 30.8503 17.1836 30.8068C17.1401 30.7633 17.1056 30.7116 17.0821 30.6547C17.0585 30.5979 17.0464 30.5369 17.0464 30.4754V28.2613C17.0464 28.0023 17.256 27.7927 17.5151 27.7927C17.7742 27.7927 17.9837 28.0023 17.9837 28.2613V30.4754C17.9837 30.5369 17.9716 30.5979 17.9481 30.6547C17.9246 30.7116 17.89 30.7633 17.8465 30.8068C17.803 30.8503 17.7513 30.8848 17.6945 30.9084C17.6376 30.9319 17.5766 30.944 17.5151 30.944ZM25.0129 30.944C24.9513 30.944 24.8903 30.9319 24.8335 30.9084C24.7766 30.8848 24.7249 30.8503 24.6814 30.8068C24.6379 30.7633 24.6034 30.7116 24.5798 30.6547C24.5563 30.5979 24.5442 30.5369 24.5442 30.4754V28.2073C24.5442 27.9483 24.7538 27.7387 25.0129 27.7387C25.272 27.7387 25.4815 27.9483 25.4815 28.2073V30.4754C25.4815 30.5369 25.4694 30.5978 25.4458 30.6547C25.4223 30.7116 25.3878 30.7632 25.3443 30.8068C25.3007 30.8503 25.2491 30.8848 25.1922 30.9083C25.1353 30.9319 25.0744 30.944 25.0129 30.944ZM12.829 33.7088C12.7674 33.7088 12.7065 33.6967 12.6496 33.6732C12.5927 33.6497 12.5411 33.6152 12.4975 33.5717C12.454 33.5282 12.4195 33.4765 12.396 33.4196C12.3724 33.3628 12.3603 33.3018 12.3604 33.2403V20.1659C12.3604 19.9069 12.57 19.6973 12.829 19.6973C13.088 19.6973 13.2976 19.9068 13.2976 20.1659V33.2403C13.2976 33.3018 13.2855 33.3628 13.262 33.4196C13.2385 33.4765 13.2039 33.5282 13.1604 33.5717C13.1169 33.6152 13.0652 33.6497 13.0084 33.6732C12.9515 33.6967 12.8905 33.7088 12.829 33.7088ZM29.6971 33.7088C29.6355 33.7088 29.5746 33.6967 29.5177 33.6732C29.4608 33.6497 29.4092 33.6152 29.3656 33.5717C29.3221 33.5282 29.2876 33.4765 29.2641 33.4196C29.2405 33.3628 29.2284 33.3018 29.2284 33.2403L29.2321 20.1659C29.2348 20.0434 29.2854 19.9269 29.373 19.8412C29.4606 19.7556 29.5782 19.7076 29.7007 19.7076C29.8232 19.7076 29.9408 19.7556 30.0284 19.8412C30.116 19.9269 30.1666 20.0434 30.1693 20.1659L30.1657 33.2403C30.1657 33.3018 30.1536 33.3628 30.1301 33.4196C30.1065 33.4765 30.072 33.5281 30.0285 33.5716C29.985 33.6152 29.9333 33.6497 29.8764 33.6732C29.8196 33.6967 29.7586 33.7088 29.6971 33.7088Z" fill="#2FDADF"/>
<path d="M29.7007 20.6359C29.6392 20.6359 29.5782 20.6238 29.5213 20.6002C29.4645 20.5767 29.4128 20.5422 29.3693 20.4987C29.3257 20.4551 29.2912 20.4035 29.2677 20.3466C29.2441 20.2897 29.232 20.2288 29.2321 20.1672C29.2321 18.2983 28.6573 12.2009 21.2639 12.2009C14.7291 12.2009 13.2976 17.9513 13.2976 20.1672C13.2976 20.4262 13.088 20.6359 12.829 20.6359C12.57 20.6359 12.3604 20.4263 12.3604 20.1672C12.3604 17.6906 13.9602 11.2637 21.2639 11.2637C27.8299 11.2637 30.1692 15.8628 30.1692 20.1672C30.1693 20.2288 30.1572 20.2897 30.1337 20.3466C30.1102 20.4035 30.0757 20.4552 30.0321 20.4987C29.9886 20.5422 29.937 20.5767 29.8801 20.6003C29.8232 20.6238 29.7623 20.6359 29.7007 20.6359ZM21.2639 30.9453C19.2888 30.9453 14.892 27.5278 14.2998 23.0403C14.2837 22.9171 14.3171 22.7925 14.3928 22.6939C14.4685 22.5953 14.5802 22.5308 14.7034 22.5145C14.9542 22.4811 15.1958 22.6605 15.2297 22.9176C15.7596 26.9391 19.7849 30.008 21.2639 30.008C22.9324 30.008 27.3558 26.3366 27.3558 21.9246C27.3558 21.863 27.3679 21.8021 27.3914 21.7452C27.4149 21.6883 27.4494 21.6367 27.493 21.5931C27.5365 21.5496 27.5882 21.5151 27.645 21.4915C27.7019 21.468 27.7629 21.4559 27.8244 21.4559C27.886 21.4559 27.9469 21.468 28.0038 21.4915C28.0607 21.5151 28.1123 21.5496 28.1559 21.5931C28.1994 21.6367 28.2339 21.6883 28.2574 21.7452C28.281 21.8021 28.2931 21.863 28.293 21.9246C28.293 26.6775 23.5192 30.9453 21.2639 30.9453Z" fill="#2FDADF"/>
<path d="M12.8273 22.5087C12.7169 22.5084 12.6101 22.4692 12.5257 22.398C12.4414 22.3267 12.3848 22.2281 12.3659 22.1193C12.3453 21.9969 12.3739 21.8712 12.4456 21.7699C12.5173 21.6686 12.6262 21.5997 12.7485 21.5785C12.8484 21.5615 22.7211 19.8079 27.5884 14.234C27.7613 14.0391 28.057 14.0203 28.2501 14.1897C28.3437 14.2714 28.401 14.387 28.4094 14.511C28.4178 14.6351 28.3766 14.7573 28.2949 14.851C23.2061 20.6779 13.3251 22.4301 12.9078 22.5019C12.8812 22.5063 12.8543 22.5086 12.8273 22.5087Z" fill="#2FDADF"/>
<path d="M29.6975 21.5715C29.6727 21.5716 29.6478 21.5696 29.6233 21.5656C25.967 20.9867 23.7923 18.1728 23.7017 18.0532C23.6295 17.9541 23.599 17.8306 23.6168 17.7093C23.6346 17.5879 23.6992 17.4784 23.7969 17.4041C23.8945 17.3299 24.0174 17.2969 24.139 17.3123C24.2607 17.3276 24.3716 17.39 24.4477 17.4862C24.4679 17.5123 26.4942 20.1211 29.7699 20.6401C29.8926 20.6596 30.0026 20.727 30.0757 20.8275C30.1488 20.9279 30.179 21.0533 30.1598 21.176C30.1423 21.2861 30.0862 21.3864 30.0015 21.4589C29.9167 21.5314 29.809 21.5713 29.6975 21.5715ZM14.703 37.5041C14.6415 37.5042 14.5805 37.4921 14.5236 37.4685C14.4668 37.445 14.4151 37.4105 14.3716 37.3669C14.328 37.3234 14.2935 37.2717 14.27 37.2149C14.2464 37.158 14.2343 37.097 14.2344 37.0355V32.711C14.2344 32.4521 14.444 32.2424 14.703 32.2424C14.962 32.2424 15.1716 32.4521 15.1716 32.711V37.0355C15.1716 37.2945 14.9619 37.5041 14.703 37.5041ZM27.8239 37.5041C27.7624 37.5042 27.7014 37.4921 27.6445 37.4685C27.5877 37.445 27.536 37.4105 27.4925 37.3669C27.4489 37.3234 27.4144 37.2717 27.3909 37.2149C27.3673 37.158 27.3552 37.097 27.3553 37.0355V32.711C27.3552 32.6495 27.3673 32.5885 27.3909 32.5317C27.4144 32.4748 27.4489 32.4231 27.4925 32.3796C27.536 32.3361 27.5877 32.3016 27.6445 32.278C27.7014 32.2545 27.7624 32.2424 27.8239 32.2424C27.8855 32.2424 27.9464 32.2545 28.0033 32.278C28.0602 32.3016 28.1118 32.3361 28.1553 32.3796C28.1989 32.4231 28.2334 32.4748 28.2569 32.5317C28.2805 32.5885 28.2926 32.6495 28.2925 32.711V37.0355C28.2926 37.097 28.2805 37.158 28.2569 37.2149C28.2334 37.2717 28.1989 37.3234 28.1553 37.3669C28.1118 37.4105 28.0602 37.445 28.0033 37.4685C27.9464 37.4921 27.8855 37.5042 27.8239 37.5041Z" fill="#2FDADF"/>
<path d="M44.6941 30.0068H34.3845C34.323 30.0068 34.2621 29.9947 34.2052 29.9712C34.1483 29.9476 34.0967 29.9131 34.0532 29.8696C34.0097 29.826 33.9751 29.7744 33.9516 29.7175C33.9281 29.6606 33.916 29.5997 33.916 29.5382V14.5429C33.916 14.4813 33.9281 14.4204 33.9516 14.3635C33.9751 14.3066 34.0097 14.255 34.0532 14.2115C34.0967 14.1679 34.1483 14.1334 34.2052 14.1099C34.2621 14.0863 34.323 14.0742 34.3845 14.0742H44.6941C44.7556 14.0742 44.8166 14.0863 44.8735 14.1098C44.9303 14.1334 44.982 14.1679 45.0255 14.2114C45.069 14.2549 45.1035 14.3066 45.1271 14.3635C45.1506 14.4204 45.1627 14.4813 45.1626 14.5429V29.5382C45.1627 29.5997 45.1506 29.6607 45.1271 29.7175C45.1035 29.7744 45.069 29.8261 45.0255 29.8696C44.982 29.9131 44.9303 29.9476 44.8735 29.9712C44.8166 29.9947 44.7556 30.0068 44.6941 30.0068ZM34.8533 29.0696H44.2254V15.0115H34.8533V29.0696Z" fill="#2FDADF"/>
<path d="M38.1333 19.6985C37.3581 19.6985 36.7275 19.0678 36.7275 18.2926C36.7275 17.5174 37.3581 16.8867 38.1333 16.8867C38.9085 16.8867 39.5393 17.5173 39.5393 18.2926C39.5393 19.0678 38.9085 19.6985 38.1333 19.6985ZM38.1333 17.8241C37.8754 17.8241 37.6648 18.0341 37.6648 18.2927C37.6648 18.5514 37.8754 18.7614 38.1333 18.7614C38.3915 18.7614 38.6021 18.5514 38.6021 18.2927C38.6021 18.0341 38.3915 17.8241 38.1333 17.8241Z" fill="#2FDADF"/>
<path d="M42.8191 18.7615H39.0702C38.8114 18.7615 38.6017 18.552 38.6017 18.2929C38.6017 18.0338 38.8114 17.8242 39.0702 17.8242H42.8191C43.0782 17.8242 43.2878 18.0338 43.2878 18.2929C43.2878 18.552 43.0782 18.7615 42.8191 18.7615ZM37.1958 18.7615H36.2586C35.9995 18.7615 35.79 18.552 35.79 18.2929C35.79 18.0338 35.9995 17.8242 36.2586 17.8242H37.1958C37.4547 17.8242 37.6643 18.0338 37.6643 18.2929C37.6643 18.552 37.4547 18.7615 37.1958 18.7615Z" fill="#2FDADF"/>
<path d="M38.1333 27.1964C37.3581 27.1964 36.7275 26.5659 36.7275 25.7905C36.7275 25.0154 37.3581 24.3848 38.1333 24.3848C38.9085 24.3848 39.5393 25.0154 39.5393 25.7905C39.5393 26.5657 38.9085 27.1964 38.1333 27.1964ZM38.1333 25.322C38.0091 25.3222 37.89 25.3717 37.8022 25.4595C37.7144 25.5474 37.665 25.6664 37.6648 25.7907C37.665 25.9149 37.7144 26.034 37.8022 26.1218C37.89 26.2097 38.0091 26.2591 38.1333 26.2593C38.3915 26.2593 38.6021 26.0493 38.6021 25.7907C38.6019 25.6664 38.5525 25.5473 38.4646 25.4594C38.3767 25.3716 38.2576 25.3222 38.1333 25.322Z" fill="#2FDADF"/>
<path d="M42.8191 26.2576H39.0702C39.0087 26.2576 38.9477 26.2455 38.8909 26.222C38.834 26.1984 38.7823 26.1639 38.7388 26.1204C38.6953 26.0769 38.6608 26.0252 38.6373 25.9683C38.6138 25.9114 38.6017 25.8505 38.6017 25.7889C38.6017 25.7274 38.6138 25.6665 38.6373 25.6096C38.6609 25.5527 38.6954 25.5011 38.7389 25.4575C38.7824 25.414 38.834 25.3795 38.8909 25.356C38.9478 25.3324 39.0087 25.3203 39.0702 25.3203H42.8191C43.0782 25.3203 43.2878 25.53 43.2878 25.7889C43.2878 25.8505 43.2757 25.9115 43.2522 25.9683C43.2286 26.0252 43.1941 26.0769 43.1506 26.1204C43.107 26.164 43.0554 26.1985 42.9985 26.222C42.9416 26.2455 42.8806 26.2576 42.8191 26.2576ZM37.1958 26.2576H36.2586C36.197 26.2576 36.1361 26.2455 36.0792 26.222C36.0223 26.1985 35.9706 26.1639 35.9271 26.1204C35.8836 26.0769 35.8491 26.0252 35.8256 25.9683C35.8021 25.9115 35.79 25.8505 35.79 25.7889C35.79 25.7274 35.8021 25.6665 35.8256 25.6096C35.8491 25.5527 35.8836 25.501 35.9272 25.4575C35.9707 25.414 36.0223 25.3795 36.0792 25.3559C36.1361 25.3324 36.197 25.3203 36.2586 25.3203H37.1958C37.2574 25.3203 37.3183 25.3324 37.3752 25.356C37.432 25.3795 37.4837 25.414 37.5272 25.4575C37.5707 25.5011 37.6052 25.5527 37.6287 25.6096C37.6523 25.6665 37.6644 25.7274 37.6643 25.7889C37.6644 25.8505 37.6523 25.9114 37.6288 25.9683C37.6052 26.0252 37.5707 26.0769 37.5272 26.1204C37.4837 26.1639 37.432 26.1984 37.3752 26.222C37.3183 26.2455 37.2574 26.2576 37.1958 26.2576Z" fill="#2FDADF"/>
<path d="M40.9448 23.4464C40.1696 23.4464 39.5391 22.8159 39.5391 22.0407C39.5391 21.2655 40.1696 20.6348 40.9448 20.6348C41.72 20.6348 42.3506 21.2654 42.3506 22.0407C42.3506 22.8157 41.72 23.4464 40.9448 23.4464ZM40.9448 21.572C40.6867 21.572 40.4761 21.782 40.4761 22.0407C40.4761 22.2993 40.6867 22.5093 40.9448 22.5093C41.2028 22.5093 41.4134 22.2993 41.4134 22.0407C41.4134 21.782 41.2028 21.572 40.9448 21.572Z" fill="#2FDADF"/>
<path d="M40.0074 22.5095H36.2586C35.9995 22.5095 35.79 22.3 35.79 22.0409C35.79 21.7818 35.9995 21.5723 36.2586 21.5723H40.0074C40.2665 21.5723 40.4759 21.7818 40.4759 22.0409C40.4759 22.3 40.2665 22.5095 40.0074 22.5095ZM42.8189 22.5095H41.8817C41.6228 22.5095 41.4132 22.3 41.4132 22.0409C41.4132 21.7818 41.6228 21.5723 41.8817 21.5723H42.8189C43.078 21.5723 43.2877 21.7818 43.2877 22.0409C43.2877 22.3 43.078 22.5095 42.8189 22.5095Z" fill="#2FDADF"/>
</g>
<defs>
<clipPath id="clip0_4079_20920">
<rect width="60" height="60" fill="white" transform="translate(0.166992)"/>
</clipPath>
</defs>
</svg>
